<?xml version="1.0" encoding="UTF-8" standalone="no"?>
<svg
   width="64"
   height="64"
   id="svg13094"
   version="1.1"
   inkscape:version="1.2.2 (b0a8486541, 2022-12-01)"
   sodipodi:docname="bug.svg"
   xmlns:inkscape="http://www.inkscape.org/namespaces/inkscape"
   xmlns:sodipodi="http://sodipodi.sourceforge.net/DTD/sodipodi-0.dtd"
   xmlns="http://www.w3.org/2000/svg"
   xmlns:svg="http://www.w3.org/2000/svg"
   xmlns:rdf="http://www.w3.org/1999/02/22-rdf-syntax-ns#"
   xmlns:cc="http://creativecommons.org/ns#"
   xmlns:dc="http://purl.org/dc/elements/1.1/">
  <sodipodi:namedview
     id="base"
     pagecolor="#ffffff"
     bordercolor="#666666"
     borderopacity="1.0"
     inkscape:pageopacity="0"
     inkscape:pageshadow="2"
     inkscape:zoom="7.9999996"
     inkscape:cx="11.187501"
     inkscape:cy="35.937502"
     inkscape:document-units="px"
     inkscape:current-layer="svg13094"
     showgrid="true"
     inkscape:snap-bbox="true"
     inkscape:bbox-paths="true"
     inkscape:bbox-nodes="true"
     inkscape:snap-bbox-edge-midpoints="true"
     inkscape:snap-bbox-midpoints="true"
     inkscape:object-paths="true"
     inkscape:snap-intersection-paths="true"
     inkscape:object-nodes="true"
     inkscape:snap-smooth-nodes="true"
     inkscape:snap-midpoints="true"
     inkscape:snap-object-midpoints="true"
     inkscape:snap-center="true"
     showguides="true"
     inkscape:guide-bbox="true"
     inkscape:window-width="2560"
     inkscape:window-height="1357"
     inkscape:window-x="0"
     inkscape:window-y="0"
     inkscape:window-maximized="1"
     inkscape:snap-global="false"
     fit-margin-top="0"
     fit-margin-left="0"
     fit-margin-right="0"
     fit-margin-bottom="0"
     showborder="true"
     inkscape:showpageshadow="false"
     inkscape:snap-page="true"
     inkscape:document-rotation="0"
     inkscape:pagecheckerboard="0"
     inkscape:deskcolor="#d1d1d1">
    <inkscape:grid
       type="xygrid"
       id="grid3075"
       empspacing="5"
       visible="true"
       enabled="true"
       snapvisiblegridlinesonly="true"
       originx="1.6362304e-08"
       originy="18"
       spacingx="1"
       spacingy="1" />
  </sodipodi:namedview>
  <defs
     id="defs13096" />
  <metadata
     id="metadata13099">
    <rdf:RDF>
      <cc:Work
         rdf:about="">
        <dc:format>image/svg+xml</dc:format>
        <dc:type
           rdf:resource="http://purl.org/dc/dcmitype/StillImage" />
        <dc:title />
      </cc:Work>
    </rdf:RDF>
  </metadata>
  <path
     inkscape:connector-curvature="0"
     style="color:#000000;display:inline;overflow:visible;visibility:visible;fill:#c13434;fill-opacity:1;fill-rule:nonzero;stroke:none;stroke-width:2.28571415;marker:none;enable-background:accumulate"
     d="m 0,4 0,30 0,28 2,2 30,0 30,0 2,-2 L 64,34 64,4 32,4 0,4 Z"
     id="path6498" />
  <path
     inkscape:connector-curvature="0"
     style="color:#000000;display:inline;overflow:visible;visibility:visible;fill:#ff5858;fill-opacity:1;fill-rule:nonzero;stroke:none;marker:none;enable-background:accumulate"
     d="M 2,0 0,1 0,4 32,4 64,4 64,1 62,0 32,0 2,0 Z"
     id="path6502" />
  <path
     inkscape:connector-curvature="0"
     style="fill:#ff8888;fill-opacity:1;fill-rule:nonzero"
     d="M 0,3 0,6 2,4 Z"
     id="path4298"
     sodipodi:nodetypes="cccc" />
  <path
     d="M 64,6 62,4 64,3 Z"
     id="path3028"
     style="fill:#e14747;fill-opacity:1"
     inkscape:connector-curvature="0" />
  <g
     id="g3043"
     inkscape:export-filename="folder.png"
     inkscape:export-xdpi="90"
     inkscape:export-ydpi="90"
     transform="translate(-0.62500009,0.082283)" />
  <g
     id="scalable"
     transform="matrix(1.0385892,0,0,1.0385892,1214.7222,1878.8121)"
     inkscape:label="#g3701"
     style="fill:#ffffff" />
  <path
     id="f"
     class="ColorScheme-Text"
     d="m 16.602479,7.7909748 c -0.36651,0 -0.718095,0.1464935 -0.977084,0.4049301 -0.539539,0.5395383 -0.539539,1.4146299 0,1.9541681 l 9.139534,9.139812 c -0.362088,0.933135 -0.561374,1.948087 -0.561374,3.012237 V 25.06615 H 11.765429 c -0.763148,0 -1.382014,0.618866 -1.382014,1.382014 0,0.763149 0.618866,1.382015 1.382014,1.382015 h 12.438126 v 11.271982 l -8.17323,18.576204 c -0.305978,0.697641 0,1.51137 0.707038,1.819283 0.699023,0.309848 1.516899,0 1.82481,-0.707038 l 6.208284,-14.111746 c 1.205116,3.086867 4.201599,5.263539 7.725182,5.263539 3.525241,0 6.521448,-2.179989 7.725182,-5.26879 l 6.213812,14.116997 c 0.307912,0.699852 1.125512,1.016609 1.824534,0.707038 0.696812,-0.307913 1.013293,-1.121642 0.707315,-1.819283 L 40.787723,39.091382 V 27.830179 H 53.22585 c 0.763148,0 1.382014,-0.618866 1.382014,-1.382015 0,-0.763148 -0.618866,-1.382014 -1.382014,-1.382014 H 40.787723 v -2.764028 c 0,-1.06415 -0.19901,-2.079102 -0.561374,-3.012237 l 9.139535,-9.139812 c 0.539539,-0.5395382 0.539539,-1.4146298 0,-1.9541681 -0.539538,-0.5395383 -1.414629,-0.5395383 -1.954168,0 L 38.747041,16.86058 c -1.518004,-1.743825 -3.747469,-2.850542 -6.251402,-2.850542 -2.503933,0 -4.733398,1.106717 -6.251402,2.850542 L 17.579563,8.1959049 C 17.319744,7.9360863 16.968989,7.7909748 16.602479,7.7909748 Z"
     style="color:#090d11;fill:currentColor;fill-opacity:0.75;stroke-width:2.76403" />
</svg>
