<?xml version="1.0" encoding="UTF-8" standalone="no"?>
<svg
   width="64"
   height="64"
   id="svg13094"
   version="1.1"
   inkscape:version="1.2.2 (b0a8486541, 2022-12-01)"
   sodipodi:docname="tools-report-bug.svg"
   xmlns:inkscape="http://www.inkscape.org/namespaces/inkscape"
   xmlns:sodipodi="http://sodipodi.sourceforge.net/DTD/sodipodi-0.dtd"
   xmlns="http://www.w3.org/2000/svg"
   xmlns:svg="http://www.w3.org/2000/svg"
   xmlns:rdf="http://www.w3.org/1999/02/22-rdf-syntax-ns#"
   xmlns:cc="http://creativecommons.org/ns#"
   xmlns:dc="http://purl.org/dc/elements/1.1/">
  <sodipodi:namedview
     id="base"
     pagecolor="#ffffff"
     bordercolor="#666666"
     borderopacity="1.0"
     inkscape:pageopacity="0"
     inkscape:pageshadow="2"
     inkscape:zoom="7.9999996"
     inkscape:cx="24.375001"
     inkscape:cy="35.812502"
     inkscape:document-units="px"
     inkscape:current-layer="svg13094"
     showgrid="true"
     inkscape:snap-bbox="true"
     inkscape:bbox-paths="true"
     inkscape:bbox-nodes="true"
     inkscape:snap-bbox-edge-midpoints="true"
     inkscape:snap-bbox-midpoints="true"
     inkscape:object-paths="true"
     inkscape:snap-intersection-paths="true"
     inkscape:object-nodes="true"
     inkscape:snap-smooth-nodes="true"
     inkscape:snap-midpoints="true"
     inkscape:snap-object-midpoints="true"
     inkscape:snap-center="true"
     showguides="true"
     inkscape:guide-bbox="true"
     inkscape:window-width="2560"
     inkscape:window-height="1357"
     inkscape:window-x="0"
     inkscape:window-y="0"
     inkscape:window-maximized="1"
     inkscape:snap-global="false"
     fit-margin-top="0"
     fit-margin-left="0"
     fit-margin-right="0"
     fit-margin-bottom="0"
     showborder="true"
     inkscape:showpageshadow="false"
     inkscape:snap-page="true"
     inkscape:document-rotation="0"
     inkscape:pagecheckerboard="0"
     inkscape:deskcolor="#d1d1d1">
    <inkscape:grid
       type="xygrid"
       id="grid3075"
       empspacing="5"
       visible="true"
       enabled="true"
       snapvisiblegridlinesonly="true"
       originx="1.6362304e-08"
       originy="18"
       spacingx="1"
       spacingy="1" />
  </sodipodi:namedview>
  <defs
     id="defs13096" />
  <metadata
     id="metadata13099">
    <rdf:RDF>
      <cc:Work
         rdf:about="">
        <dc:format>image/svg+xml</dc:format>
        <dc:type
           rdf:resource="http://purl.org/dc/dcmitype/StillImage" />
        <dc:title />
      </cc:Work>
    </rdf:RDF>
  </metadata>
  <path
     inkscape:connector-curvature="0"
     style="color:#000000;display:inline;overflow:visible;visibility:visible;fill:#c13434;fill-opacity:1;fill-rule:nonzero;stroke:none;stroke-width:2.28571415;marker:none;enable-background:accumulate"
     d="m 0,4 0,30 0,28 2,2 30,0 30,0 2,-2 L 64,34 64,4 32,4 0,4 Z"
     id="path6498" />
  <path
     inkscape:connector-curvature="0"
     style="color:#000000;display:inline;overflow:visible;visibility:visible;fill:#ff5858;fill-opacity:1;fill-rule:nonzero;stroke:none;marker:none;enable-background:accumulate"
     d="M 2,0 0,1 0,4 32,4 64,4 64,1 62,0 32,0 2,0 Z"
     id="path6502" />
  <path
     inkscape:connector-curvature="0"
     style="fill:#ff8888;fill-opacity:1;fill-rule:nonzero"
     d="M 0,3 0,6 2,4 Z"
     id="path4298"
     sodipodi:nodetypes="cccc" />
  <path
     d="M 64,6 62,4 64,3 Z"
     id="path3028"
     style="fill:#e14747;fill-opacity:1"
     inkscape:connector-curvature="0" />
  <g
     id="g3043"
     inkscape:export-filename="folder.png"
     inkscape:export-xdpi="90"
     inkscape:export-ydpi="90"
     transform="translate(-0.62500009,0.082283)" />
  <g
     id="scalable"
     transform="matrix(1.0385892,0,0,1.0385892,1214.7222,1878.8121)"
     inkscape:label="#g3701"
     style="fill:#ffffff" />
  <path
     id="h"
     class="ColorScheme-Background"
     d="m 32.495639,11.24601 c -4.182527,0 -7.849563,2.35744 -9.728273,5.808881 l -7.482223,-4.891224 c -0.63932,-0.420408 -1.49838,-0.24047 -1.916577,0.399679 -0.416539,0.638214 -0.237707,1.493128 0.399678,1.911049 l 7.984171,5.220143 c -0.204538,0.837501 -0.318416,1.709552 -0.318416,2.607584 v 5.528057 H 10.377887 c -0.763148,0 -1.3820139,0.618865 -1.3820139,1.382014 0,0.763148 0.6188659,1.382014 1.3820139,1.382014 h 11.056112 v 9.463479 l -8.103024,14.030759 c -0.383371,0.660327 -0.15755,1.506396 0.501948,1.88949 0.661708,0.382541 1.50833,0.154785 1.889489,-0.507476 l 6.170415,-10.683521 c 1.363219,4.563687 5.613741,7.919493 10.602812,7.919493 4.988241,0 9.229643,-3.356636 10.591756,-7.919493 l 6.175944,10.683521 c 0.381159,0.662538 1.227781,0.890017 1.889489,0.507476 0.660603,-0.383094 0.885319,-1.229163 0.501948,-1.88949 L 43.551751,40.063214 v -9.469007 h 11.050584 c 0.763149,0 1.382015,-0.618866 1.382015,-1.382014 0,-0.763149 -0.618866,-1.382014 -1.382015,-1.382014 H 43.551751 v -5.528057 c 0,-0.898032 -0.113325,-1.770083 -0.318692,-2.607584 l 7.984448,-5.220143 c 0.637385,-0.417921 0.815941,-1.272835 0.399402,-1.911049 -0.418198,-0.640702 -1.276981,-0.819811 -1.916301,-0.399679 l -7.4825,4.891224 C 40.341056,13.60345 36.67789,11.24601 32.495639,11.24601 Z m 0,2.764028 c 0.179662,0 0.357389,0 0.534563,0.02764 0.02764,0.0014 0.04699,-0.0017 0.0691,0 0.02764,0.0019 0.05528,0 0.08016,0 0.154785,0 0.307912,0.02764 0.459105,0.04975 h 0.0691 0.05528 c 0.165842,0.02764 0.327814,0.05804 0.491168,0.09121 v 0 c 0,0.0014 0.02764,0 0.02764,0 0.146493,0.03317 0.293816,0.0691 0.437269,0.107797 0.06634,0.02764 0.132673,0.0387 0.19901,0.05804 h 0.04422 c 0.138201,0.04146 0.276402,0.09121 0.410458,0.140965 0.154785,0.05804 0.307636,0.121617 0.458828,0.187954 0.196246,0.08568 0.394427,0.179662 0.582934,0.280825 0,0 0.02764,0 0.03317,0.02764 0.03041,0.02764 0.05528,0.0387 0.08568,0.05528 0.174134,0.09674 0.34578,0.19901 0.512727,0.307636 0.06081,0.0387 0.118854,0.08292 0.176898,0.124382 0.146494,0.102269 0.287736,0.207302 0.42649,0.318416 0.0387,0.0304 0.08016,0.05528 0.118853,0.08568 0,0 0.02764,0.02764 0.03317,0.02764 0.152022,0.127145 0.294922,0.262582 0.437269,0.399402 0.08845,0.08569 0.179662,0.174134 0.265347,0.265347 0.08016,0.08292 0.154786,0.171369 0.232179,0.259818 0.08568,0.09674 0.168605,0.196246 0.248762,0.297133 0.116089,0.146494 0.229414,0.298515 0.334724,0.453301 0.06634,0.09951 0.129909,0.201774 0.193482,0.302384 0.05804,0.09398 0.118853,0.187954 0.17137,0.286077 0.06081,0.107797 0.121617,0.212831 0.176897,0.323944 0,0.02764 0.02764,0.0387 0.03317,0.06081 0.427042,0.849109 0.712566,1.776717 0.825891,2.764028 0.03593,0.316205 0.05804,0.639873 0.05804,0.966304 v 19.348197 c 0,0.287182 -0.02764,0.568008 -0.04423,0.847451 -0.02764,0.279443 -0.0691,0.55557 -0.124381,0.826168 -0.05528,0.270875 -0.124381,0.538985 -0.204538,0.798804 -0.08016,0.259819 -0.17137,0.513004 -0.276403,0.761213 -0.836947,1.985402 -2.425158,3.573612 -4.410559,4.41056 -0.248763,0.105033 -0.501119,0.196246 -0.761214,0.276403 -0.259818,0.08016 -0.528482,0.149257 -0.798804,0.204538 -0.270874,0.05528 -0.541196,0.09674 -0.82064,0.124381 -0.277508,0.02764 -0.562203,0.04422 -0.847451,0.04422 -0.287182,0 -0.568007,-0.02764 -0.847451,-0.04422 -0.279443,-0.02764 -0.555569,-0.0691 -0.826168,-0.124381 -0.270874,-0.05528 -0.538985,-0.124381 -0.798804,-0.204538 -0.259818,-0.08016 -0.513003,-0.17137 -0.761213,-0.276403 -1.985401,-0.836948 -3.573612,-2.425158 -4.41056,-4.41056 -0.105033,-0.248762 -0.196246,-0.501118 -0.276403,-0.761213 -0.08016,-0.259819 -0.149257,-0.528482 -0.204538,-0.798804 -0.05528,-0.270875 -0.09674,-0.546725 -0.124381,-0.826168 -0.02764,-0.279443 -0.04422,-0.560269 -0.04422,-0.847451 V 22.279457 c 0,-0.326431 0.02764,-0.650099 0.06081,-0.966304 0.113325,-0.98814 0.403825,-1.914366 0.83142,-2.764028 0.08016,-0.160314 0.163078,-0.316481 0.254291,-0.469608 0.02764,-0.02764 0.0304,-0.04699 0.04422,-0.0691 0.270875,-0.449707 0.580722,-0.869563 0.928437,-1.257909 0.03317,-0.0387 0.0691,-0.07739 0.102269,-0.113325 0.110561,-0.118854 0.223886,-0.232179 0.340252,-0.345504 0.135437,-0.129909 0.270875,-0.257054 0.41571,-0.377842 0.08845,-0.07463 0.182426,-0.14373 0.276403,-0.215595 0.08568,-0.06634 0.174133,-0.129909 0.265346,-0.193482 0.07739,-0.05528 0.15755,-0.110561 0.237707,-0.163077 0.140965,-0.09121 0.281101,-0.179662 0.426489,-0.265347 0.06357,-0.03593 0.129909,-0.07187 0.193482,-0.107797 0.04699,-0.02764 0.09398,-0.04699 0.140966,-0.0691 0.143729,-0.07463 0.288564,-0.143729 0.437269,-0.210066 0.152021,-0.06634 0.302937,-0.132673 0.458828,-0.187954 h 0.02764 c 0.171369,-0.06357 0.342463,-0.116089 0.518255,-0.168606 0.179662,-0.05252 0.365405,-0.09951 0.550594,-0.140965 0,-0.0011 0,0 0.02764,0 v 0 c 0.163077,-0.03593 0.329472,-0.06634 0.496696,-0.09121 h 0.0691 0.08569 c 0.138202,-0.02764 0.276403,-0.0304 0.41571,-0.04422 h 0.15755 c 0.176897,0 0.354072,-0.02764 0.534563,-0.02764 z"
     style="color:#ffffff;fill:currentColor;fill-opacity:0.5;stroke-width:2.76403" />
  <path
     id="f"
     class="ColorScheme-Text"
     d="m 16.602479,7.7909748 c -0.36651,0 -0.718095,0.1464935 -0.977084,0.4049301 -0.539539,0.5395383 -0.539539,1.4146299 0,1.9541681 l 9.139534,9.139812 c -0.362088,0.933135 -0.561374,1.948087 -0.561374,3.012237 V 25.06615 H 11.765429 c -0.763148,0 -1.382014,0.618866 -1.382014,1.382014 0,0.763149 0.618866,1.382015 1.382014,1.382015 h 12.438126 v 11.271982 l -8.17323,18.576204 c -0.305978,0.697641 0,1.51137 0.707038,1.819283 0.699023,0.309848 1.516899,0 1.82481,-0.707038 l 6.208284,-14.111746 c 1.205116,3.086867 4.201599,5.263539 7.725182,5.263539 3.525241,0 6.521448,-2.179989 7.725182,-5.26879 l 6.213812,14.116997 c 0.307912,0.699852 1.125512,1.016609 1.824534,0.707038 0.696812,-0.307913 1.013293,-1.121642 0.707315,-1.819283 L 40.787723,39.091382 V 27.830179 H 53.22585 c 0.763148,0 1.382014,-0.618866 1.382014,-1.382015 0,-0.763148 -0.618866,-1.382014 -1.382014,-1.382014 H 40.787723 v -2.764028 c 0,-1.06415 -0.19901,-2.079102 -0.561374,-3.012237 l 9.139535,-9.139812 c 0.539539,-0.5395382 0.539539,-1.4146298 0,-1.9541681 -0.539538,-0.5395383 -1.414629,-0.5395383 -1.954168,0 L 38.747041,16.86058 c -1.518004,-1.743825 -3.747469,-2.850542 -6.251402,-2.850542 -2.503933,0 -4.733398,1.106717 -6.251402,2.850542 L 17.579563,8.1959049 C 17.319744,7.9360863 16.968989,7.7909748 16.602479,7.7909748 Z"
     style="color:#090d11;fill:currentColor;fill-opacity:0.75;stroke-width:2.76403" />
</svg>
