<?xml version="1.0" encoding="UTF-8" standalone="no"?>
<svg
   shape-rendering="geometricPrecision"
   text-rendering="geometricPrecision"
   image-rendering="optimizeQuality"
   fill-rule="evenodd"
   clip-rule="evenodd"
   viewBox="0 0 64.000001 63.999999"
   version="1.1"
   id="svg8"
   sodipodi:docname="phpmyadmin.svg"
   width="64"
   height="64"
   inkscape:version="1.2.2 (b0a8486541, 2022-12-01)"
   xmlns:inkscape="http://www.inkscape.org/namespaces/inkscape"
   xmlns:sodipodi="http://sodipodi.sourceforge.net/DTD/sodipodi-0.dtd"
   xmlns:xlink="http://www.w3.org/1999/xlink"
   xmlns="http://www.w3.org/2000/svg"
   xmlns:svg="http://www.w3.org/2000/svg">
  <defs
     id="defs12">
    <radialGradient
       id="c-3"
       cx="35.574001"
       cy="1.0190001"
       r="32"
       gradientTransform="matrix(0,1.1252,-5.1753,0,37.271,-39.029)"
       gradientUnits="userSpaceOnUse"
       xlink:href="#a-6" />
    <linearGradient
       id="a-6">
      <stop
         stop-color="#fff"
         stop-opacity=".07"
         offset="0"
         id="stop8" />
      <stop
         stop-color="#fff"
         stop-opacity=".001"
         offset="1"
         id="stop10" />
    </linearGradient>
    <radialGradient
       id="d-7"
       cx="35.574001"
       cy="1.036"
       r="32"
       gradientTransform="matrix(0,1.1252,-5.1753,0,37.363,-39.029)"
       gradientUnits="userSpaceOnUse"
       xlink:href="#a-6" />
    <radialGradient
       id="e-5"
       cx="35.574001"
       cy="1.0549999"
       r="32"
       gradientTransform="matrix(0,1.1252,-5.1753,0,37.458,-39.029)"
       gradientUnits="userSpaceOnUse"
       xlink:href="#a-6" />
    <radialGradient
       id="f-3"
       cx="35.574001"
       cy="1.071"
       r="32"
       gradientTransform="matrix(0,1.1252,-5.1753,0,37.544,-39.029)"
       gradientUnits="userSpaceOnUse"
       xlink:href="#a-6" />
    <radialGradient
       id="g-5"
       cx="35.574001"
       cy="1.091"
       r="32"
       gradientTransform="matrix(0,1.1252,-5.1753,0,37.648,-39.029)"
       gradientUnits="userSpaceOnUse"
       xlink:href="#a-6" />
    <radialGradient
       id="h-6"
       cx="35.574001"
       cy="1.113"
       r="32"
       gradientTransform="matrix(0,1.1252,-5.1753,0,37.758,-39.029)"
       gradientUnits="userSpaceOnUse"
       xlink:href="#a-6" />
    <radialGradient
       id="i-2"
       cx="35.574001"
       cy="1.135"
       r="32"
       gradientTransform="matrix(0,1.1252,-5.1753,0,37.875,-39.029)"
       gradientUnits="userSpaceOnUse"
       xlink:href="#a-6" />
    <radialGradient
       id="j-9"
       cx="35.574001"
       cy="1.159"
       r="32"
       gradientTransform="matrix(0,1.1252,-5.1753,0,38,-39.029)"
       gradientUnits="userSpaceOnUse"
       xlink:href="#a-6" />
    <radialGradient
       id="k-1"
       cx="35.574001"
       cy="1.1799999"
       r="32"
       gradientTransform="matrix(0,1.1252,-5.1753,0,38.107,-39.029)"
       gradientUnits="userSpaceOnUse"
       xlink:href="#a-6" />
    <radialGradient
       id="l-2"
       cx="35.574001"
       cy="1.2079999"
       r="32"
       gradientTransform="matrix(0,1.1252,-5.1753,0,38.252,-39.029)"
       gradientUnits="userSpaceOnUse"
       xlink:href="#a-6" />
    <radialGradient
       id="m-7"
       cx="35.574001"
       cy="1.239"
       r="32"
       gradientTransform="matrix(0,1.1252,-5.1753,0,38.411,-39.029)"
       gradientUnits="userSpaceOnUse"
       xlink:href="#a-6" />
    <radialGradient
       id="n-0"
       cx="35.574001"
       cy="1.273"
       r="32"
       gradientTransform="matrix(0,1.1252,-5.1753,0,38.587,-39.029)"
       gradientUnits="userSpaceOnUse"
       xlink:href="#a-6" />
    <radialGradient
       id="o-9"
       cx="35.574001"
       cy="1.304"
       r="32"
       gradientTransform="matrix(0,1.1252,-5.1753,0,38.75,-39.029)"
       gradientUnits="userSpaceOnUse"
       xlink:href="#a-6" />
    <radialGradient
       id="p-3"
       cx="35.574001"
       cy="1.346"
       r="32"
       gradientTransform="matrix(0,1.1252,-5.1753,0,38.966,-39.029)"
       gradientUnits="userSpaceOnUse"
       xlink:href="#a-6" />
    <radialGradient
       id="q-6"
       cx="35.574001"
       cy="1.393"
       r="32"
       gradientTransform="matrix(0,1.1252,-5.1753,0,39.208,-39.029)"
       gradientUnits="userSpaceOnUse"
       xlink:href="#a-6" />
    <radialGradient
       id="r-0"
       cx="35.574001"
       cy="1.439"
       r="32"
       gradientTransform="matrix(0,1.1252,-5.1753,0,39.446,-39.029)"
       gradientUnits="userSpaceOnUse"
       xlink:href="#a-6" />
    <radialGradient
       id="s-6"
       cx="36.463001"
       cy="1.498"
       r="32"
       gradientTransform="matrix(0,0.02541,-1.2755,0,33.91,1.073)"
       gradientUnits="userSpaceOnUse">
      <stop
         stop-color="#fff"
         stop-opacity=".667"
         offset="0"
         id="stop28" />
      <stop
         stop-color="#fff"
         stop-opacity=".001"
         offset="1"
         id="stop30" />
    </radialGradient>
    <radialGradient
       id="b"
       cx="37.338001"
       cy="41.714001"
       r="32"
       gradientTransform="matrix(1.0524,0,0,1.0195,-1.9329679,-0.90699625)"
       gradientUnits="userSpaceOnUse">
      <stop
         stop-color="#b7c4e3"
         offset="0"
         id="stop2" />
      <stop
         stop-color="#b7c4e3"
         offset="1"
         id="stop4" />
    </radialGradient>
  </defs>
  <sodipodi:namedview
     id="namedview10"
     pagecolor="#ffffff"
     bordercolor="#666666"
     borderopacity="1.0"
     inkscape:showpageshadow="2"
     inkscape:pageopacity="0.0"
     inkscape:pagecheckerboard="0"
     inkscape:deskcolor="#d1d1d1"
     showgrid="false"
     inkscape:zoom="5.5608766"
     inkscape:cx="93.240695"
     inkscape:cy="50.621515"
     inkscape:window-width="2560"
     inkscape:window-height="1351"
     inkscape:window-x="0"
     inkscape:window-y="0"
     inkscape:window-maximized="1"
     inkscape:current-layer="svg8" />
  <rect
     width="64"
     height="64"
     rx="1"
     ry="1"
     fill="url(#b)"
     paint-order="fill markers stroke"
     id="rect35"
     x="3.1812677e-05"
     y="0"
     style="fill:url(#b)" />
  <g
     transform="translate(3.208123e-5,0.00150675)"
     id="g77">
    <path
       d="M 1,0 C 0.446,0 0,0.446 0,1 V 63 62.776 63 2 h 1.752 c 19.15,0.002 39.445,0 60.213,0 H 64 V 63 62.666 63 1 A 0.998,0.998 0 0 0 63,0 Z"
       fill="url(#c-3)"
       id="path43"
       style="fill:url(#c-3)" />
    <path
       d="M 1,0 A 0.998,0.998 0 0 0 0,1.006 v 61.98 -0.197 c 0,-0.277 0.004,-0.184 0.01,0.246 0.012,0.016 0.03,-0.297 0.052,-0.897 v -60 C 0.134,2.129 0.195,2.125 0.247,2.125 0.537,2.109 0.604,2.093 1.021,2.081 1.267,2.07 1.517,2.062 1.768,2.062 c 19.183,0.002 39.392,0 60.2,0 0.346,0 0.689,0.012 1.023,0.03 0.268,0.01 0.389,0.02 0.52,0.033 0.106,0 0.22,0.01 0.427,0.028 v 59.744 c 0.027,0.754 0.05,1.148 0.059,1.123 L 64,62.686 V 62.972 1.21 C 64,1.067 64,0.99 63.998,0.986 A 0.996,0.996 0 0 0 62.986,0 H 1"
       fill="url(#d-7)"
       id="path45"
       style="fill:url(#d-7)" />
    <path
       d="M 1,0 A 0.998,0.998 0 0 0 0,1.006 v 61.966 -0.169 c 0,-0.245 0.008,-0.145 0.021,0.266 0.022,0.034 0.06,-0.247 0.104,-0.807 V 2.274 A 0.744,0.744 0 0 1 0.298,2.249 C 0.568,2.218 0.639,2.185 1.041,2.161 1.283,2.139 1.533,2.124 1.783,2.124 c 19.217,0.002 39.34,0 60.187,0 0.347,0 0.69,0.024 1.013,0.06 0.256,0.02 0.372,0.042 0.494,0.065 0.1,0 0.206,0.02 0.398,0.057 v 59.731 c 0.055,0.703 0.102,1.052 0.119,1.003 C 63.998,62.886 64,62.775 64,62.707 V 62.944 1.196 C 64,1.057 64,0.981 63.997,0.972 A 0.994,0.994 0 0 0 63.19,0.02 1.025,1.025 0 0 0 62.973,0 H 1"
       fill="url(#e-5)"
       id="path47"
       style="fill:url(#e-5)" />
    <path
       d="M 1,0 A 0.998,0.998 0 0 0 0,1.005 v 61.953 -0.14 c 0,-0.213 0.012,-0.107 0.031,0.287 0.034,0.05 0.091,-0.198 0.156,-0.718 V 2.413 A 0.45,0.45 0 0 1 0.347,2.376 C 0.599,2.328 0.674,2.279 1.062,2.244 1.3,2.21 1.549,2.188 1.799,2.188 c 19.25,0.002 39.286,0 60.173,0 0.348,0 0.688,0.036 1.001,0.09 0.244,0.029 0.356,0.062 0.47,0.098 0.091,0 0.19,0.03 0.37,0.085 v 59.718 c 0.082,0.653 0.151,0.957 0.176,0.884 0.007,-0.152 0.01,-0.262 0.01,-0.333 V 62.918 1.184 c 0,-0.135 0,-0.21 -0.004,-0.224 A 0.992,0.992 0 0 0 63.176,0.02 1.041,1.041 0 0 0 62.959,0.002 H 0.999"
       fill="url(#f-3)"
       id="path49"
       style="fill:url(#f-3)" />
    <path
       d="M 1,0 A 0.998,0.998 0 0 0 0,1.005 V 62.944 62.831 C 0,62.651 0.015,62.763 0.042,63.139 0.087,63.206 0.163,62.99 0.25,62.51 V 2.55 A 0.312,0.312 0 0 1 0.398,2.5 C 0.63,2.437 0.709,2.372 1.082,2.324 1.316,2.28 1.565,2.25 1.814,2.25 c 19.284,0.002 39.234,0 60.16,0 0.35,0 0.689,0.048 0.991,0.12 0.232,0.039 0.34,0.083 0.444,0.13 0.085,0 0.176,0.04 0.341,0.114 v 59.704 c 0.11,0.603 0.203,0.862 0.236,0.764 C 63.996,62.934 64,62.823 64,62.749 V 62.889 1.168 C 64,1.038 63.998,0.962 63.994,0.944 A 0.991,0.991 0 0 0 63.164,0.017 1.066,1.066 0 0 0 62.944,0 H 1"
       fill="url(#g-5)"
       id="path51"
       style="fill:url(#g-5)" />
    <path
       d="M 1,0 A 0.998,0.998 0 0 0 0,1.004 V 62.93 62.846 c 0,-0.148 0.02,-0.029 0.052,0.328 0.056,0.084 0.152,-0.099 0.26,-0.539 V 2.686 C 0.365,2.646 0.409,2.625 0.448,2.625 0.66,2.545 0.745,2.465 1.103,2.405 1.333,2.349 1.58,2.312 1.83,2.312 c 19.317,0.002 39.18,0 60.147,0 0.35,0 0.688,0.06 0.98,0.151 0.22,0.047 0.322,0.102 0.418,0.162 0.078,0 0.162,0.049 0.313,0.142 v 59.69 c 0.137,0.553 0.253,0.767 0.295,0.645 A 4.73,4.73 0 0 0 64,62.77 V 62.86 1.155 C 64,1.029 63.998,0.953 63.993,0.931 A 0.99,0.99 0 0 0 63.15,0.017 1.099,1.099 0 0 0 62.932,0 H 1"
       fill="url(#h-6)"
       id="path53"
       style="fill:url(#h-6)" />
    <path
       d="M 1,0 A 0.998,0.998 0 0 0 0,1.004 V 62.916 62.86 c 0,-0.117 0.023,0.01 0.063,0.349 0.067,0.1 0.182,-0.05 0.312,-0.45 V 2.824 C 0.423,2.775 0.463,2.75 0.498,2.75 0.691,2.655 0.78,2.558 1.124,2.486 1.349,2.419 1.596,2.376 1.845,2.376 h 60.133 c 0.352,0 0.688,0.071 0.97,0.18 a 0.944,0.944 0 0 1 0.393,0.194 c 0.07,0 0.147,0.059 0.284,0.17 V 62.6 c 0.164,0.502 0.304,0.671 0.354,0.524 0.014,-0.14 0.02,-0.25 0.02,-0.331 V 62.835 1.14 c 0,-0.121 -0.002,-0.197 -0.009,-0.224 A 0.99,0.99 0 0 0 63.136,0.014 1.142,1.142 0 0 0 62.918,0 H 1"
       fill="url(#i-2)"
       id="path55"
       style="fill:url(#i-2)" />
    <path
       d="M 1,0 A 0.998,0.998 0 0 0 0,1.004 v 61.898 -0.029 c 0,-0.084 0.027,0.049 0.073,0.37 0.079,0.117 0.212,0 0.365,-0.36 V 2.96 C 0.481,2.903 0.517,2.874 0.548,2.874 0.722,2.762 0.815,2.649 1.144,2.565 A 2.19,2.19 0 0 1 1.861,2.436 c 19.385,0.002 39.075,0 60.12,0 0.353,0 0.687,0.084 0.958,0.211 0.196,0.066 0.29,0.144 0.368,0.227 0.063,0 0.132,0.068 0.256,0.199 v 59.665 c 0.192,0.452 0.354,0.576 0.413,0.404 A 3.11,3.11 0 0 0 64,62.812 V 1.125 C 64,1.008 63.996,0.932 63.99,0.901 A 0.99,0.99 0 0 0 63.122,0.011 1.198,1.198 0 0 0 62.905,0 H 1"
       fill="url(#j-9)"
       id="path57"
       style="fill:url(#j-9)" />
    <path
       d="M 1,0 A 0.998,0.998 0 0 0 0,1.003 v 61.885 c 0,-0.052 0.03,0.087 0.084,0.39 0.09,0.135 0.242,0.05 0.416,-0.27 V 3.097 C 0.538,3.034 0.57,3 0.599,3 0.753,2.873 0.85,2.743 1.165,2.648 1.382,2.559 1.628,2.5 1.876,2.5 c 19.418,0.002 39.022,0 60.107,0 0.355,0 0.687,0.096 0.947,0.242 A 0.723,0.723 0 0 1 63.273,3 c 0.056,0 0.118,0.079 0.227,0.227 v 59.651 c 0.22,0.402 0.406,0.482 0.473,0.285 C 63.991,63.031 64,62.92 64,62.833 V 1.112 C 64,0.999 63.996,0.924 63.988,0.888 A 0.99,0.99 0 0 0 63.109,0.011 1.273,1.273 0 0 0 62.891,0 H 1.001"
       fill="url(#k-1)"
       id="path59"
       style="fill:url(#k-1)" />
    <path
       d="M 1,0 A 0.998,0.998 0 0 0 0,1.003 v 61.899 c 0,-0.02 0.035,0.126 0.094,0.41 0.101,0.152 0.273,0.1 0.468,-0.18 V 3.235 C 0.596,3.162 0.624,3.125 0.649,3.125 0.784,2.982 0.885,2.835 1.185,2.728 1.398,2.628 1.644,2.562 1.892,2.562 c 19.452,0.002 38.969,0 60.093,0 0.356,0 0.687,0.108 0.936,0.272 a 0.678,0.678 0 0 1 0.317,0.29 c 0.05,0 0.103,0.089 0.2,0.256 v 59.64 c 0.246,0.352 0.455,0.386 0.531,0.165 0.02,-0.128 0.03,-0.239 0.03,-0.33 V 1.1 c 0,-0.108 -0.004,-0.184 -0.013,-0.224 A 0.99,0.99 0 0 0 63.095,0.012 1.376,1.376 0 0 0 62.877,0.002 H 1"
       fill="url(#l-2)"
       id="path61"
       style="fill:url(#l-2)" />
    <path
       d="M 1,0 A 0.998,0.998 0 0 0 0,1.002 v 61.913 c 0,0.013 0.039,0.165 0.105,0.432 0.112,0.168 0.303,0.148 0.52,-0.092 V 3.373 C 0.654,3.292 0.678,3.25 0.699,3.25 0.815,3.091 0.921,2.929 1.206,2.81 1.415,2.699 1.66,2.625 1.907,2.625 c 19.486,0.002 38.916,0 60.08,0 0.357,0 0.687,0.12 0.925,0.302 a 0.66,0.66 0 0 1 0.292,0.323 c 0.043,0 0.089,0.098 0.171,0.284 V 63.16 c 0.275,0.302 0.507,0.29 0.591,0.046 C 63.988,63.081 64,62.97 64,62.876 V 1.085 C 64,0.981 63.995,0.905 63.984,0.861 A 0.99,0.99 0 0 0 63.081,0.009 1.514,1.514 0 0 0 62.863,0.001 H 1"
       fill="url(#m-7)"
       id="path63"
       style="fill:url(#m-7)" />
    <path
       d="M 1,0 A 0.998,0.998 0 0 0 0,1.002 V 62.93 c 0,0.045 0.042,0.203 0.115,0.453 0.123,0.184 0.333,0.197 0.572,-0.003 V 3.51 C 0.711,3.421 0.732,3.375 0.749,3.375 0.846,3.201 0.956,3.022 1.227,2.891 1.431,2.769 1.675,2.688 1.923,2.688 c 19.519,0.002 38.863,0 60.067,0 a 1.4,1.4 0 0 1 0.914,0.332 c 0.15,0.103 0.224,0.225 0.267,0.355 0.035,0 0.073,0.108 0.142,0.313 V 63.3 c 0.302,0.251 0.557,0.196 0.65,-0.074 A 1.7,1.7 0 0 0 64,62.896 V 1.071 C 64,0.971 63.994,0.896 63.983,0.847 A 0.99,0.99 0 0 0 63.068,0.007 1.712,1.712 0 0 0 62.85,0 H 1"
       fill="url(#n-0)"
       id="path65"
       style="fill:url(#n-0)" />
    <path
       d="M 1,0 A 0.998,0.998 0 0 0 0,1.002 v 61.942 c 0,0.077 0.046,0.242 0.126,0.473 0.134,0.201 0.363,0.246 0.624,0.086 V 3.647 C 0.77,3.55 0.785,3.5 0.8,3.5 A 0.981,0.981 0 0 1 1.247,2.971 C 1.447,2.838 1.691,2.75 1.938,2.75 c 19.553,0.002 38.811,0 60.053,0 0.36,0 0.686,0.144 0.903,0.362 A 0.688,0.688 0 0 1 63.136,3.5 c 0.028,0 0.059,0.118 0.114,0.341 v 59.598 c 0.33,0.2 0.608,0.1 0.709,-0.194 0.026,-0.117 0.04,-0.228 0.04,-0.329 V 1.056 c 0,-0.095 -0.006,-0.17 -0.018,-0.224 A 0.991,0.991 0 0 0 63.054,0.005 2.015,2.015 0 0 0 62.836,0 H 1"
       fill="url(#o-9)"
       id="path67"
       style="fill:url(#o-9)" />
    <path
       d="M 1,0 A 0.998,0.998 0 0 0 0,1.001 v 61.956 c 0,0.11 0.05,0.281 0.136,0.494 0.146,0.218 0.394,0.296 0.677,0.176 V 3.784 C 0.827,3.679 0.839,3.624 0.849,3.624 A 0.967,0.967 0 0 1 1.268,3.052 c 0.196,-0.144 0.439,-0.24 0.686,-0.24 19.586,0.002 38.758,0 60.04,0 0.36,0 0.685,0.156 0.892,0.392 a 0.73,0.73 0 0 1 0.216,0.42 c 0.021,0 0.044,0.128 0.086,0.37 v 59.585 c 0.356,0.15 0.658,0.005 0.768,-0.314 C 63.985,63.151 64,63.041 64,62.937 V 1.042 C 64,0.952 63.993,0.876 63.98,0.818 A 0.992,0.992 0 0 0 63.04,0.004 2.524,2.524 0 0 0 62.823,-0.001 H 1"
       fill="url(#p-3)"
       id="path69"
       style="fill:url(#p-3)" />
    <path
       d="M 1,0 A 0.998,0.998 0 0 0 0,1 v 61.972 c 0,0.142 0.054,0.32 0.147,0.515 a 0.643,0.643 0 0 0 0.728,0.265 V 3.922 C 0.885,3.808 0.893,3.75 0.9,3.75 A 0.97,0.97 0 0 1 1.289,3.133 c 0.192,-0.155 0.434,-0.258 0.68,-0.258 19.62,0.002 38.705,0 60.027,0 0.362,0 0.686,0.168 0.882,0.422 a 0.794,0.794 0 0 1 0.19,0.453 c 0.015,0 0.03,0.137 0.057,0.398 V 63.72 c 0.385,0.1 0.71,-0.09 0.828,-0.434 C 63.983,63.176 64,63.066 64,62.958 V 1.028 C 64,0.942 63.993,0.867 63.979,0.804 A 0.994,0.994 0 0 0 63.028,0.002 3.563,3.563 0 0 0 62.809,0 H 1"
       fill="url(#q-6)"
       id="path71"
       style="fill:url(#q-6)" />
    <path
       d="M 1,0 A 0.998,0.998 0 0 0 0,1 v 61.986 c 0,0.174 0.058,0.358 0.157,0.535 a 0.802,0.802 0 0 0 0.78,0.355 V 4.06 C 0.942,3.938 0.947,3.875 0.95,3.875 A 0.987,0.987 0 0 1 1.31,3.215 C 1.497,3.049 1.739,2.938 1.985,2.938 c 19.653,0.002 38.652,0 60.013,0 0.363,0 0.685,0.18 0.87,0.452 a 0.876,0.876 0 0 1 0.166,0.485 c 0.007,0 0.015,0.147 0.028,0.427 V 63.86 c 0.412,0.05 0.76,-0.186 0.887,-0.553 a 1.1,1.1 0 0 0 0.05,-0.328 V 1.014 A 0.996,0.996 0 0 0 63.014,0 6.67,6.67 0 0 0 62.795,0 H 1"
       fill="url(#r-0)"
       id="path73"
       style="fill:url(#r-0)" />
    <path
       d="M 1,0 A 0.998,0.998 0 0 0 0,1 v 62 a 0.997,0.997 0 0 0 1,1 V 4.001 C 1,3.747 1.132,3.487 1.33,3.296 A 0.99,0.99 0 0 1 2,3.001 c 19.687,0.002 38.599,0 60,0 A 1,1 0 0 1 62.86,3.484 0.98,0.98 0 0 1 63,4 v 60 a 0.998,0.998 0 0 0 1,-1 V 1.001 a 0.998,0.998 0 0 0 -1,-1 H 1"
       fill="url(#s-6)"
       id="path75"
       style="fill:url(#s-6)" />
  </g>
  <path
     fill="#cccccc"
     fill-rule="nonzero"
     d="m 34.884218,4.8571142 -0.04974,-0.097634 c -0.02395,-0.023948 -0.04789,-0.049738 -0.09763,-0.049738 l -0.09948,0.02579 c -0.0479,0.047896 -0.07369,0.073686 -0.07369,0.1215818 l -2.096367,37.968531 0.320535,-0.0479 2.022678,-36.9350844 2.418742,3.9716729 h -0.02579 c 1.82557,5.3790745 2.591903,11.1026315 2.295319,17.1725115 l 0.147371,0.221058 2.394793,4.244311 0.147372,0.147371 c 3.675086,3.232973 7.795974,5.404865 12.360819,6.513839 l 1.110815,1.801622 0.147374,0.04974 0.02395,-0.04974 L 34.834475,5.5718686 34.884215,4.8552727 Z M 57.139219,41.571141 c 1.037131,-0.123424 1.702146,-0.346325 1.998731,-0.666858 L 6.33828,47.344434 H 6.314332 c 0.023948,2.195842 1.0113405,3.921936 2.9363856,5.156176 0.5176444,0.37027 1.0610784,0.641068 1.5529324,0.814229 0.469747,-0.543435 0.987391,-0.937653 1.604511,-1.307926 h 0.02395 C 17.9604,48.65236 26.176384,48.132876 37.030326,50.428191 l 0.123424,0.02395 c 1.184501,0.24685 2.369003,0.543434 3.479819,0.887917 0.320532,0.04974 0.59133,-0.04789 0.814229,-0.246849 0.394221,-0.294743 0.887917,-0.517642 1.554774,-0.665016 v -0.02579 c 1.751885,-3.107704 4.119044,-5.403022 7.081219,-6.908057 2.046629,-1.01134 4.415633,-1.676356 7.055431,-1.923203 z m -25.362705,0.9616 2.416898,-37.0585069 C 30.689645,18.995607 25.065565,31.62722 17.343277,43.346973 Z m -13.595058,-29.853863 -0.09763,-0.04974 -0.09948,0.02579 -0.04974,0.123424 -1.998731,32.073653 0.296585,-0.02395 1.998733,-32.049706 z M 15.368494,44.161201 17.490651,12.875989 6.3143322,45.122804 Z M 34.884218,4.8571142 34.145517,18.255063 c 2.590061,5.305389 3.527716,13.32242 2.83691,24.054779 L 47.073717,41.077444 34.145517,18.255063 34.884218,4.8571142 15.368494,44.161201 Z m -5.434339,7.7259718 c 0.215533,0.132635 0.283692,0.414484 0.1529,0.631858 a 0.46201093,0.46201093 0 0 1 -0.631859,0.152898 c -0.508431,-0.311324 -1.022391,-0.427378 -1.540035,-0.344482 -0.53975,0.08842 -1.103448,0.390536 -1.691094,0.911864 -0.184214,0.162109 -0.462379,0.151056 -0.631856,-0.0221 -0.497381,-0.508432 -0.994761,-0.803176 -1.488456,-0.889757 -0.4808,-0.08105 -0.981865,0.035 -1.501352,0.346324 -0.217372,0.12895 -0.499222,0.05895 -0.630015,-0.158425 -0.12895,-0.217374 -0.05895,-0.499223 0.158425,-0.630015 0.714755,-0.429221 1.423982,-0.583961 2.127682,-0.462379 0.578435,0.09948 1.138449,0.385009 1.681883,0.860283 0.611593,-0.475274 1.223187,-0.762649 1.831095,-0.860283 0.740544,-0.11974 1.462666,0.035 2.162682,0.464221 z M 26.706921,8.4364093 c 0.217373,0.1307927 0.289216,0.4126413 0.158424,0.630015 A 0.46090564,0.46090564 0 0 1 26.23533,9.224849 C 25.726897,8.9190523 25.229516,8.8251028 24.741349,8.9430003 24.22002,9.0682665 23.685797,9.4311698 23.13131,10.029868 c -0.17132,0.184215 -0.46238,0.19711 -0.646594,0.02395 l -0.02763,-0.02763 C 21.913649,9.4311698 21.381268,9.0682665 20.859939,8.9430003 20.368085,8.8251028 19.865178,8.9172101 19.354905,9.224849 19.13753,9.3537996 18.855682,9.2837978 18.724891,9.0664243 18.594096,8.8490506 18.665939,8.567202 18.883314,8.4364093 c 0.723965,-0.4347471 1.455297,-0.5618554 2.192156,-0.385009 0.587646,0.1418454 1.162397,0.4789587 1.724251,1.0131819 0.567383,-0.5342232 1.142133,-0.8713365 1.726095,-1.0131819 0.733175,-0.1786885 1.457141,-0.049738 2.181105,0.385009 z M 15.694556,54.340917 a 0.27503281,0.27503281 0 0 1 0.237636,0.495538 c -1.41477,0.676069 -2.641641,1.073971 -3.680614,1.199239 -1.086868,0.132635 -1.980309,-0.02947 -2.6803275,-0.473433 L 9.5491536,55.54752 C 8.9651924,55.160667 8.2154384,55.013296 7.3035759,55.103561 c -0.9542341,0.09579 -2.0834717,0.451328 -3.3877127,1.066605 -0.1381606,0.06447 -0.3021112,0.0055 -0.3684283,-0.130792 -0.064477,-0.138163 -0.00553,-0.302113 0.1326342,-0.366589 1.3595053,-0.642909 2.5495334,-1.015024 3.5700846,-1.116342 1.0426547,-0.105002 1.9103081,0.07369 2.6029556,0.532381 l 0.012896,0.0074 c 0.5913307,0.373957 1.3631897,0.508433 2.3211087,0.392379 0.981864,-0.11974 2.149786,-0.499223 3.507452,-1.147659 z m 6.742263,0.184214 c 0.14553,0.04789 0.2229,0.202635 0.175005,0.348167 -0.0479,0.143687 -0.202637,0.221057 -0.346325,0.175004 -0.254216,-0.08474 -0.523169,-0.158425 -0.799492,-0.215531 -0.259743,-0.05342 -0.532382,-0.09396 -0.81423,-0.116058 l -0.0055,-0.0018 c -0.569224,-0.04421 -1.197396,0.04422 -1.888202,0.263429 -0.705546,0.2229 -1.477405,0.585803 -2.311897,1.081342 l -0.0055,0.0037 c -0.876865,0.532382 -1.842149,0.90081 -2.901385,1.107132 -1.05371,0.204478 -2.203211,0.248689 -3.450345,0.134476 a 0.2748486,0.2748486 0 0 1 0.04974,-0.547118 c 1.193713,0.108686 2.291634,0.06632 3.297448,-0.12895 0.994761,-0.193427 1.899255,-0.537908 2.71901,-1.037131 l 0.01105,-0.0055 c 0.867654,-0.515802 1.676357,-0.895285 2.426111,-1.132921 0.760808,-0.241321 1.458983,-0.338958 2.096366,-0.287375 h 0.0074 c 0.296585,0.02395 0.59133,0.06816 0.878704,0.127108 0.298429,0.06264 0.587646,0.140002 0.862127,0.23211 z m 15.192202,-2.525585 c 0.149213,0.03132 0.245005,0.176845 0.215531,0.32606 -0.03132,0.147372 -0.176846,0.245005 -0.326059,0.213689 -5.84514,-1.202923 -10.874205,-1.663461 -15.081674,-1.379769 -4.179835,0.28369 -7.545442,1.304242 -10.094976,3.063494 -0.123423,0.08658 -0.296584,0.05527 -0.381326,-0.07 -0.08658,-0.125268 -0.05527,-0.296587 0.07001,-0.383168 2.63243,-1.816359 6.088302,-2.870068 10.369456,-3.159284 4.255364,-0.289219 9.332325,0.175003 15.229044,1.388979 z m 7.444123,1.171606 c 0.143687,0.05527 0.215531,0.213689 0.160266,0.357376 -0.05342,0.141847 -0.213688,0.21369 -0.355533,0.158426 A 5.0543037,5.0543037 0 0 0 43.28626,53.35905 h -0.0092 c -0.571066,-0.04605 -1.202923,0.04237 -1.893728,0.261587 -0.705542,0.224741 -1.477402,0.585803 -2.311897,1.083182 -0.878704,0.521328 -1.845834,0.884232 -2.906911,1.090553 -1.05555,0.206321 -2.203209,0.256059 -3.448501,0.154739 -0.151059,-0.01105 -0.265271,-0.143687 -0.252377,-0.296585 0.01105,-0.151056 0.143688,-0.265268 0.296588,-0.252373 1.197396,0.09579 2.295318,0.0479 3.301129,-0.147374 0.996604,-0.193425 1.906624,-0.534224 2.730066,-1.024233 0.867651,-0.515802 1.676354,-0.893444 2.42611,-1.132922 0.762649,-0.241322 1.462666,-0.338956 2.101891,-0.287376 0.302113,0.01474 0.598699,0.05157 0.886074,0.110529 0.303954,0.06264 0.595015,0.149215 0.867652,0.252375 z"
     id="path2"
     style="fill:#ffffff;stroke-width:0.184215" />
  <g
     id="g2354"
     transform="matrix(0.31666439,0,0,0.22370373,-66.310899,-0.60951376)">
    <g
       aria-label="P"
       id="text445"
       style="font-size:93.4569px;letter-spacing:0px;word-spacing:0px;stroke-width:2.33642"
       transform="matrix(0.99337463,0,0,0.99337463,130.14581,137.98499)">
      <path
         d="M 100.84227,70.911271 H 122.153 q 9.30919,0 14.19195,4.335159 4.88275,4.335159 4.88275,12.686044 0,11.225781 -7.21005,17.477536 -7.21005,6.25176 -20.26116,6.25176 h -11.59085 l -5.339092,27.37995 h -9.26355 z m 7.75766,7.57512 -4.92839,25.600259 h 11.59084 q 7.84892,0 12.04718,-4.01573 4.19826,-4.015727 4.19826,-11.49958 0,-4.791492 -2.87489,-7.43822 -2.82927,-2.646729 -7.98582,-2.646729 z"
         style="-inkscape-font-specification:'sans-serif Italic';fill:#6c78af;fill-opacity:1;stroke:#000000;stroke-opacity:1"
         id="path497" />
    </g>
    <g
       aria-label="M"
       id="text2336"
       style="font-size:96.3904px;line-height:1.25;letter-spacing:0px;word-spacing:0px;fill:#f89c0e;fill-opacity:1;stroke:#000000;stroke-width:2.40976;stroke-opacity:1"
       transform="matrix(0.96314269,0,0,0.96314269,121.16329,140.68215)">
      <path
         d="m 166.77624,70.336717 h 14.26088 l 8.18942,47.348023 27.20393,-47.348023 h 14.63741 L 217.37179,140.6057 h -9.22487 l 11.95467,-61.608908 -27.58045,48.101068 h -9.27193 l -8.94247,-48.28933 -11.95467,61.79717 h -9.27193 z"
         style="font-style:italic;-inkscape-font-specification:'sans-serif Italic';fill:#f89c0e;fill-opacity:1;stroke:#000000;stroke-opacity:1"
         id="path2342" />
    </g>
    <g
       aria-label="A"
       id="text2340"
       style="font-size:96.3904px;line-height:1.25;letter-spacing:0px;word-spacing:0px;stroke-width:2.40976"
       transform="matrix(0.96314269,0,0,0.96314269,114.06894,140.68215)">
      <path
         d="m 273.15872,70.336717 h 10.77803 l 13.03717,70.268983 h -9.93084 l -2.91807,-18.02614 h -31.6281 l -9.93085,18.02614 h -10.02498 z m 3.43579,9.36606 -19.7205,34.969763 h 25.79196 z"
         style="font-style:italic;-inkscape-font-specification:'sans-serif Italic';fill:#f89c0e;fill-opacity:1;stroke:#000000;stroke-opacity:1"
         id="path2345" />
    </g>
  </g>
</svg>
