<?xml version="1.0" encoding="UTF-8" standalone="no"?>
<svg
   version="1.1"
   id="Layer_1"
   x="0px"
   y="0px"
   viewBox="12 13 64 64"
   xml:space="preserve"
   sodipodi:docname="proton-vpn-logo.svg"
   width="64"
   height="64"
   inkscape:version="1.2.2 (b0a8486541, 2022-12-01)"
   xmlns:inkscape="http://www.inkscape.org/namespaces/inkscape"
   xmlns:sodipodi="http://sodipodi.sourceforge.net/DTD/sodipodi-0.dtd"
   xmlns="http://www.w3.org/2000/svg"
   xmlns:svg="http://www.w3.org/2000/svg"><defs
   id="defs39" /><sodipodi:namedview
   id="namedview37"
   pagecolor="#ffffff"
   bordercolor="#666666"
   borderopacity="1.0"
   inkscape:showpageshadow="2"
   inkscape:pageopacity="0.0"
   inkscape:pagecheckerboard="0"
   inkscape:deskcolor="#d1d1d1"
   showgrid="false"
   inkscape:zoom="10.26759"
   inkscape:cx="10.469838"
   inkscape:cy="13.099472"
   inkscape:window-width="2560"
   inkscape:window-height="1351"
   inkscape:window-x="0"
   inkscape:window-y="0"
   inkscape:window-maximized="1"
   inkscape:current-layer="Layer_1" />
<style
   type="text/css"
   id="style2">
	.st0{fill-rule:evenodd;clip-rule:evenodd;fill:url(#SVGID_1_);}
	.st1{fill-rule:evenodd;clip-rule:evenodd;fill:url(#SVGID_00000179623718493237744380000001822013374167103378_);}
	.st2{fill-rule:evenodd;clip-rule:evenodd;fill:url(#SVGID_00000166662081072146141900000011398005821491064979_);}
	.st3{fill-rule:evenodd;clip-rule:evenodd;fill:url(#SVGID_00000136392201933729594890000013522983325187500444_);}
</style>
<g
   id="g34"
   transform="matrix(2.5429192,0,0,2.5429192,-18.442722,-19.280944)">
	
		<linearGradient
   id="SVGID_1_"
   gradientUnits="userSpaceOnUse"
   x1="24.072901"
   y1="792.72827"
   x2="24.913401"
   y2="821.26343"
   gradientTransform="translate(0,-792)">
		<stop
   offset="0.9887"
   style="stop-color:#6D4AFF"
   id="stop4" />
		<stop
   offset="1"
   style="stop-color:#000000"
   id="stop6" />
	</linearGradient>
	<path
   class="st0"
   d="m 22.2,35.5 c 0.9,1.7 3.3,1.8 4.4,0.2 l 9.9,-15.1 c 1.1,-1.6 0,-3.8 -1.9,-4 L 15.1,14.4 c -2.1,-0.2 -3.6,2 -2.5,3.8 z"
   id="path9"
   style="fill:url(#SVGID_1_)" />
	
		<linearGradient
   id="SVGID_00000115482928009205252490000007092240464606197688_"
   gradientUnits="userSpaceOnUse"
   x1="24.5884"
   y1="810.01593"
   x2="22.617201"
   y2="828.21478"
   gradientTransform="translate(0,-792)">
		<stop
   offset="0"
   style="stop-color:#6D4AFF"
   id="stop11" />
		<stop
   offset="1"
   style="stop-color:#2AE0CA"
   id="stop13" />
	</linearGradient>
	<path
   style="clip-rule:evenodd;fill:url(#SVGID_00000115482928009205252490000007092240464606197688_);fill-rule:evenodd"
   d="m 22.2,35.5 c 0.9,1.7 3.3,1.8 4.4,0.2 l 9.9,-15.1 c 1.1,-1.6 0,-3.8 -1.9,-4 L 15.1,14.4 c -2.1,-0.2 -3.6,2 -2.5,3.8 z"
   id="path16" />
	
		<linearGradient
   id="SVGID_00000102508848256421527460000004188195535591011976_"
   gradientUnits="userSpaceOnUse"
   x1="24.5884"
   y1="810.01593"
   x2="22.617201"
   y2="828.21478"
   gradientTransform="translate(0,-792)">
		<stop
   offset="0"
   style="stop-color:#6D4AFF"
   id="stop18" />
		<stop
   offset="1"
   style="stop-color:#2AE0CA"
   id="stop20" />
	</linearGradient>
	<path
   style="clip-rule:evenodd;fill:url(#SVGID_00000102508848256421527460000004188195535591011976_);fill-rule:evenodd"
   d="m 22.2,35.5 c 0.9,1.7 3.3,1.8 4.4,0.2 l 9.9,-15.1 c 1.1,-1.6 0,-3.8 -1.9,-4 L 15.1,14.4 c -2.1,-0.2 -3.6,2 -2.5,3.8 z"
   id="path23" />
	
		<linearGradient
   id="SVGID_00000150082972474716683750000015468562722213777566_"
   gradientUnits="userSpaceOnUse"
   x1="34.111099"
   y1="826.76727"
   x2="18.636101"
   y2="800.34229"
   gradientTransform="translate(0,-792)">
		<stop
   offset="6.601250e-02"
   style="stop-color:#ABFFEF"
   id="stop25" />
		<stop
   offset="0.4499"
   style="stop-color:#CAC9FF"
   id="stop27" />
		<stop
   offset="1"
   style="stop-color:#6D4AFF"
   id="stop29" />
	</linearGradient>
	<path
   style="clip-rule:evenodd;fill:url(#SVGID_00000150082972474716683750000015468562722213777566_);fill-rule:evenodd"
   d="m 23.7,32.8 -0.9,1.3 c -0.4,0.5 -1.2,0.5 -1.5,-0.1 l 0.9,1.6 c 0.2,0.3 0.4,0.5 0.6,0.7 v 0 c 1.1,0.9 2.9,0.8 3.8,-0.6 l 9.9,-15.1 c 1.1,-1.6 0,-3.8 -1.9,-4 L 15.1,14.4 c -2.1,-0.2 -3.6,2 -2.5,3.8 l 0.1,0.1 16.6,1.9 c 1.1,0.1 1.6,1.3 1,2.2 z"
   id="path32" />
</g>
</svg>
