<?xml version="1.0" encoding="UTF-8" standalone="no"?>
<!-- Created with Inkscape (http://www.inkscape.org/) -->

<svg
   width="64"
   height="64"
   id="svg13094"
   version="1.1"
   inkscape:version="1.2.2 (b0a8486541, 2022-12-01)"
   sodipodi:docname="signal-desktop.svg"
   xmlns:inkscape="http://www.inkscape.org/namespaces/inkscape"
   xmlns:sodipodi="http://sodipodi.sourceforge.net/DTD/sodipodi-0.dtd"
   xmlns="http://www.w3.org/2000/svg"
   xmlns:svg="http://www.w3.org/2000/svg"
   xmlns:rdf="http://www.w3.org/1999/02/22-rdf-syntax-ns#"
   xmlns:cc="http://creativecommons.org/ns#"
   xmlns:dc="http://purl.org/dc/elements/1.1/">
  <sodipodi:namedview
     id="base"
     pagecolor="#ffffff"
     bordercolor="#666666"
     borderopacity="1.0"
     inkscape:pageopacity="0"
     inkscape:pageshadow="2"
     inkscape:zoom="11.313709"
     inkscape:cx="26.649086"
     inkscape:cy="26.737474"
     inkscape:document-units="px"
     inkscape:current-layer="svg13094"
     showgrid="true"
     inkscape:snap-bbox="true"
     inkscape:bbox-paths="true"
     inkscape:bbox-nodes="true"
     inkscape:snap-bbox-edge-midpoints="true"
     inkscape:snap-bbox-midpoints="true"
     inkscape:object-paths="true"
     inkscape:snap-intersection-paths="true"
     inkscape:object-nodes="true"
     inkscape:snap-smooth-nodes="true"
     inkscape:snap-midpoints="true"
     inkscape:snap-object-midpoints="true"
     inkscape:snap-center="true"
     showguides="true"
     inkscape:guide-bbox="true"
     inkscape:window-width="2560"
     inkscape:window-height="1357"
     inkscape:window-x="0"
     inkscape:window-y="0"
     inkscape:window-maximized="1"
     inkscape:snap-global="true"
     fit-margin-top="0"
     fit-margin-left="0"
     fit-margin-right="0"
     fit-margin-bottom="0"
     showborder="true"
     inkscape:showpageshadow="false"
     inkscape:snap-page="true"
     inkscape:pagecheckerboard="0"
     inkscape:deskcolor="#d1d1d1">
    <inkscape:grid
       type="xygrid"
       id="grid3075"
       empspacing="5"
       visible="true"
       enabled="true"
       snapvisiblegridlinesonly="true"
       originx="1.6362304e-08"
       originy="18"
       spacingx="1"
       spacingy="1" />
  </sodipodi:namedview>
  <defs
     id="defs13096" />
  <metadata
     id="metadata13099">
    <rdf:RDF>
      <cc:Work
         rdf:about="">
        <dc:format>image/svg+xml</dc:format>
        <dc:type
           rdf:resource="http://purl.org/dc/dcmitype/StillImage" />
        <dc:title />
      </cc:Work>
    </rdf:RDF>
  </metadata>
  <path
     inkscape:connector-curvature="0"
     style="color:#000000;fill:#1a84d7;fill-opacity:1;fill-rule:nonzero;stroke:none;stroke-width:2.28571415;marker:none;visibility:visible;display:inline;overflow:visible;enable-background:accumulate"
     d="m 0,4 0,30 0,28 2,2 30,0 30,0 2,-2 L 64,34 64,4 32,4 0,4 z"
     id="path6498" />
  <g
     id="g432"
     transform="matrix(0.34764432,0,0,0.34764432,9.5821343,11.052061)"
     style="fill:#ffffff">
    <path
       d="m 64,0 c 3.32,0 6.582,0.253 9.766,0.74 L 72.85,6.671 A 58.45,58.45 0 0 0 64,6 C 60.991,6 58.036,6.23 55.15,6.67 L 54.235,0.74 A 64.498,64.498 0 0 1 64,0 Z m 15.188,1.813 -1.424,5.83 a 57.657,57.657 0 0 1 16.352,6.779 l 3.115,-5.13 A 63.623,63.623 0 0 0 79.188,1.813 Z m 22.635,10.554 -3.545,4.84 a 58.323,58.323 0 0 1 12.514,12.516 l 4.841,-3.546 a 64.364,64.364 0 0 0 -13.81,-13.81 z m 16.885,18.403 -5.129,3.115 a 57.67,57.67 0 0 1 6.778,16.351 l 5.83,-1.423 a 63.63,63.63 0 0 0 -7.479,-18.044 z m 8.552,23.465 -5.931,0.915 A 58.42,58.42 0 0 1 122,64 c 0,3.01 -0.229,5.965 -0.671,8.85 l 5.931,0.916 C 127.747,70.582 128,67.32 128,64 c 0,-3.32 -0.253,-6.581 -0.74,-9.765 z m -13.681,39.881 a 57.669,57.669 0 0 0 6.778,-16.352 l 5.83,1.424 a 63.603,63.603 0 0 1 -7.48,18.043 z m -2.787,4.162 4.841,3.546 a 64.38,64.38 0 0 1 -13.81,13.809 l -3.546,-4.841 a 58.33,58.33 0 0 0 12.515,-12.514 z m -16.677,15.301 3.116,5.129 a 63.63,63.63 0 0 1 -18.044,7.479 l -1.423,-5.83 a 57.67,57.67 0 0 0 16.351,-6.778 z m -21.265,7.75 0.915,5.931 C 70.581,127.747 67.32,128 64,128 c -3.32,0 -6.582,-0.253 -9.766,-0.74 l 0.916,-5.93 c 2.884,0.441 5.84,0.67 8.85,0.67 a 58.42,58.42 0 0 0 8.85,-0.671 z m -22.614,-0.971 -1.424,5.829 a 63.528,63.528 0 0 1 -13.823,-5.125 l -6.074,1.418 -1.363,-5.843 8.208,-1.916 1.953,0.995 a 57.481,57.481 0 0 0 12.523,4.642 z m -27.748,-2.54 1.363,5.843 -10.411,2.43 C 6.51,127.707 0.293,121.489 1.91,114.56 l 2.429,-10.411 5.843,1.363 -2.43,10.412 c -0.606,2.598 1.726,4.93 4.324,4.324 z M 11.363,100.448 5.52,99.085 6.938,93.011 A 63.55,63.55 0 0 1 1.813,79.187 l 5.829,-1.423 a 57.55,57.55 0 0 0 4.642,12.523 l 0.994,1.953 z M 6.67,72.85 0.74,73.765 A 64.497,64.497 0 0 1 0,64 C 0,60.68 0.253,57.418 0.74,54.234 L 6.671,55.15 A 58.45,58.45 0 0 0 6,64 c 0,3.01 0.229,5.966 0.67,8.85 z M 7.643,50.236 1.813,48.812 a 63.622,63.622 0 0 1 7.48,-18.043 l 5.129,3.115 A 57.656,57.656 0 0 0 7.643,50.236 Z m 9.565,-20.513 -4.84,-3.546 a 64.37,64.37 0 0 1 13.809,-13.81 l 3.546,4.84 A 58.334,58.334 0 0 0 17.208,29.722 Z M 33.885,14.421 30.769,9.292 a 63.621,63.621 0 0 1 18.044,-7.48 l 1.423,5.83 a 57.654,57.654 0 0 0 -16.351,6.78 z"
       id="path303"
       style="fill:#ffffff" />
    <path
       d="m 116,64 c 0,28.719 -23.281,52 -52,52 -9.11,0 -17.672,-2.342 -25.117,-6.457 a 3.307,3.307 0 0 0 -2.351,-0.341 l -23.132,5.397 5.397,-23.13 a 3.31,3.31 0 0 0 -0.34,-2.352 C 14.341,81.671 12,73.109 12,64 12,35.281 35.281,12 64,12 c 28.719,0 52,23.281 52,52 z"
       id="path305"
       style="fill:#ffffff" />
  </g>
  <path
     inkscape:connector-curvature="0"
     style="color:#000000;fill:#6fc8f2;fill-opacity:1;fill-rule:nonzero;stroke:none;stroke-width:2.28571415;marker:none;visibility:visible;display:inline;overflow:visible;enable-background:accumulate"
     d="M 2,0 0,1 0,4 32,4 64,4 64,1 62,0 32,0 2,0 z"
     id="path6502" />
  <path
     inkscape:connector-curvature="0"
     style="fill:#8ad2f4;fill-opacity:1;fill-rule:nonzero"
     d="M 0,3 0,6 2,4 Z"
     id="path4298"
     sodipodi:nodetypes="cccc" />
  <path
     d="M 64,6 62,4 64,3 z"
     id="path3028"
     style="fill:#42a2e0;fill-opacity:1"
     inkscape:connector-curvature="0" />
  <g
     id="g3043"
     inkscape:export-filename="folder.png"
     inkscape:export-xdpi="90"
     inkscape:export-ydpi="90"
     transform="translate(-0.62500009,0.082283)" />
  <g
     id="scalable"
     transform="matrix(1.0385892,0,0,1.0385892,1214.7222,1878.8121)"
     inkscape:label="#g3701"
     style="fill:#ffffff" />
</svg>
