<?xml version="1.0" encoding="UTF-8" standalone="no"?>
<svg
   id="d"
   width="24"
   height="24"
   version="1.1"
   sodipodi:docname="firewall-applet-error.svg"
   inkscape:version="1.2.2 (b0a8486541, 2022-12-01)"
   xmlns:inkscape="http://www.inkscape.org/namespaces/inkscape"
   xmlns:sodipodi="http://sodipodi.sourceforge.net/DTD/sodipodi-0.dtd"
   xmlns="http://www.w3.org/2000/svg"
   xmlns:svg="http://www.w3.org/2000/svg"
   xmlns:rdf="http://www.w3.org/1999/02/22-rdf-syntax-ns#"
   xmlns:cc="http://creativecommons.org/ns#"
   xmlns:dc="http://purl.org/dc/elements/1.1/">
  <sodipodi:namedview
     id="namedview8"
     pagecolor="#ffffff"
     bordercolor="#666666"
     borderopacity="1.0"
     inkscape:showpageshadow="2"
     inkscape:pageopacity="0.0"
     inkscape:pagecheckerboard="0"
     inkscape:deskcolor="#d1d1d1"
     showgrid="false"
     inkscape:zoom="34.166667"
     inkscape:cx="12.029268"
     inkscape:cy="12.014634"
     inkscape:window-width="1920"
     inkscape:window-height="1005"
     inkscape:window-x="0"
     inkscape:window-y="0"
     inkscape:window-maximized="1"
     inkscape:current-layer="d" />
  <metadata
     id="a">
    <rdf:RDF>
      <cc:Work
         rdf:about="">
        <dc:format>image/svg+xml</dc:format>
        <dc:type
           rdf:resource="http://purl.org/dc/dcmitype/StillImage" />
      </cc:Work>
    </rdf:RDF>
  </metadata>
  <defs
     id="c">
    <style
       id="current-color-scheme"
       type="text/css">.ColorScheme-Text {color:#090d11;}.ColorScheme-Background{color:#ffffff;}</style>
  </defs>
  <path
     id="e"
     class="ColorScheme-Text"
     d="m12 3.0273c-3 0.97358-5.3665 0.97266-7 0.97266h-1v5c0 3.3938 3.5839 9.4406 8 11.99 4.4161-2.5497 8-8.5964 8-11.99v-5h-1c-1.6335 0-4 9.238e-4 -7-0.97266z"
     style="fill:#ff0000;opacity:0.75;fill-opacity:1;stroke:none;stroke-opacity:1" />
  <path
     id="b"
     class="ColorScheme-Background"
     d="m12 1.9766-0.30859 0.099609c-2.853 0.92586-5.0575 0.92383-6.6914 0.92383h-2v6c0 2.0489 0.98386 4.4878 2.502 6.8516 1.5181 2.3638 3.595 4.6165 5.998 6.0039l0.5 0.28906 0.5-0.28906c2.4031-1.3874 4.48-3.6401 5.998-6.0039 1.5181-2.3638 2.502-4.8027 2.502-6.8516v-6h-2c-1.6339 0-3.8384 0.00203-6.6914-0.92383zm0 1.0508c3 0.97358 5.3665 0.97266 7 0.97266h1v5c0 3.3938-3.5839 9.4406-8 11.99-4.4161-2.5497-8-8.5964-8-11.99v-5h1c1.6335 0 4 9.238e-4 7-0.97266z"
     style="fill:currentColor;opacity:.5" />
  <rect
     style="fill:#ffffff;fill-opacity:1;stroke:none;stroke-width:0.604"
     id="rect288"
     width="9.4056005"
     height="2.3397596"
     x="7.4567618"
     y="8.4130926"
     ry="1.0396683" />
</svg>
