<?xml version="1.0" encoding="UTF-8" standalone="no"?>
<!-- Created with Inkscape (http://www.inkscape.org/) -->

<svg
   width="24"
   height="24"
   id="svg13094"
   version="1.1"
   inkscape:version="1.2.2 (b0a8486541, 2022-12-01)"
   sodipodi:docname="gpa.svg"
   xmlns:inkscape="http://www.inkscape.org/namespaces/inkscape"
   xmlns:sodipodi="http://sodipodi.sourceforge.net/DTD/sodipodi-0.dtd"
   xmlns="http://www.w3.org/2000/svg"
   xmlns:svg="http://www.w3.org/2000/svg"
   xmlns:rdf="http://www.w3.org/1999/02/22-rdf-syntax-ns#"
   xmlns:cc="http://creativecommons.org/ns#"
   xmlns:dc="http://purl.org/dc/elements/1.1/">
  <sodipodi:namedview
     id="base"
     pagecolor="#ffffff"
     bordercolor="#666666"
     borderopacity="1.0"
     inkscape:pageopacity="0"
     inkscape:pageshadow="2"
     inkscape:zoom="11.313709"
     inkscape:cx="25.544231"
     inkscape:cy="26.737474"
     inkscape:document-units="px"
     inkscape:current-layer="svg13094"
     showgrid="true"
     inkscape:snap-bbox="true"
     inkscape:bbox-paths="true"
     inkscape:bbox-nodes="true"
     inkscape:snap-bbox-edge-midpoints="true"
     inkscape:snap-bbox-midpoints="true"
     inkscape:object-paths="true"
     inkscape:snap-intersection-paths="true"
     inkscape:object-nodes="true"
     inkscape:snap-smooth-nodes="true"
     inkscape:snap-midpoints="true"
     inkscape:snap-object-midpoints="true"
     inkscape:snap-center="true"
     showguides="true"
     inkscape:guide-bbox="true"
     inkscape:window-width="2560"
     inkscape:window-height="1357"
     inkscape:window-x="0"
     inkscape:window-y="0"
     inkscape:window-maximized="1"
     inkscape:snap-global="true"
     fit-margin-top="0"
     fit-margin-left="0"
     fit-margin-right="0"
     fit-margin-bottom="0"
     showborder="true"
     inkscape:showpageshadow="false"
     inkscape:snap-page="true"
     inkscape:pagecheckerboard="0"
     inkscape:deskcolor="#d1d1d1">
    <inkscape:grid
       type="xygrid"
       id="grid3075"
       empspacing="5"
       visible="true"
       enabled="true"
       snapvisiblegridlinesonly="true"
       originx="1.6362304e-08"
       originy="18"
       spacingx="1"
       spacingy="1" />
  </sodipodi:namedview>
  <defs
     id="defs13096" />
  <metadata
     id="metadata13099">
    <rdf:RDF>
      <cc:Work
         rdf:about="">
        <dc:format>image/svg+xml</dc:format>
        <dc:type
           rdf:resource="http://purl.org/dc/dcmitype/StillImage" />
      </cc:Work>
    </rdf:RDF>
  </metadata>
  <g
     id="g3043"
     inkscape:export-filename="folder.png"
     inkscape:export-xdpi="90"
     inkscape:export-ydpi="90"
     transform="translate(-0.62500009,0.082283)" />
  <g
     id="scalable"
     transform="matrix(1.0385892,0,0,1.0385892,1214.7222,1878.8121)"
     inkscape:label="#g3701"
     style="fill:#ffffff" />
  <g
     id="g974"
     transform="matrix(0.40926356,0,0,0.40926356,-1.140993,-2.2514486)">
    <path
       sodipodi:nodetypes="ssccccsccccsssscccsssss"
       inkscape:connector-curvature="0"
       id="rect3776"
       d="m 35.25,18.25 c -7.179702,0 -13,5.820298 -13,13 v 3 L 18,51 v 1 l 2.25,2.25 c 0,0 5.99997,0.500242 15,0.5 9.000031,-2.42e-4 15,-0.5 15,-0.5 v -19 -1 l -2,-2 v -1 c 0,-7.179702 -5.820298,-13 -13,-13 z m 0,4 c 4.970563,0 9,4.029437 9,9 v 3 h -9 -9 v -3 c 0,-0.31066 5.24e-4,-0.603696 0.03125,-0.90625 0.337986,-3.32809 2.507701,-6.122582 5.46875,-7.375 0.269186,-0.113856 0.530683,-0.224846 0.8125,-0.3125 C 33.40795,22.393288 34.318019,22.25 35.25,22.25 Z"
       style="color:#000000;display:inline;overflow:visible;visibility:visible;fill:#ffffff;fill-opacity:1;fill-rule:nonzero;stroke:none;stroke-width:4;marker:none;enable-background:accumulate" />
    <path
       sodipodi:nodetypes="sccsccs"
       inkscape:connector-curvature="0"
       id="path4822"
       d="m 32,31 c -9.00003,0 -15,0 -15,0 v 1 c 0,0 5.99997,0 15,0 9.000031,0 15,0 15,0 v -1 c 0,0 -5.999969,0 -15,0 z"
       style="color:#000000;display:inline;overflow:visible;visibility:visible;fill:#ffe75c;fill-opacity:1;fill-rule:nonzero;stroke:none;stroke-width:4;marker:none;enable-background:accumulate" />
    <path
       sodipodi:nodetypes="czcczcc"
       inkscape:connector-curvature="0"
       id="path4824"
       d="m 17,32 c 0,0 5.999939,0 14.999969,0 9.000031,0 14.99997,0 14.99997,0 v 19.000242 c 0,0 -5.999939,0.499758 -14.99997,0.5 C 22.999939,51.500484 17,51.000242 17,51.000242 Z"
       style="color:#000000;display:inline;overflow:visible;visibility:visible;fill:#ffffff;fill-opacity:1;fill-rule:nonzero;stroke:#000000;stroke-width:2;stroke-dasharray:none;stroke-opacity:1;marker:none;enable-background:accumulate" />
    <path
       inkscape:connector-curvature="0"
       style="color:#000000;display:inline;overflow:visible;visibility:visible;fill:#000000;fill-opacity:0.1819;fill-rule:nonzero;stroke:none;stroke-width:4;marker:none;enable-background:accumulate"
       d="m 22.21875,31 -0.125,0.6875 L 25.6875,31 Z"
       id="path4930" />
    <path
       id="path4892"
       d="m 44.09375,31 -0.125,0.6875 L 47,31.09375 V 31 Z"
       style="color:#000000;display:inline;overflow:visible;visibility:visible;fill:#000000;fill-opacity:0.1819;fill-rule:nonzero;stroke:none;stroke-width:4;marker:none;enable-background:accumulate" />
    <path
       style="color:#000000;display:inline;overflow:visible;visibility:visible;fill:#000000;fill-opacity:1;fill-rule:nonzero;stroke:none;stroke-width:2.28571;marker:none;enable-background:accumulate"
       d="m 32,15 c -7.179702,0 -13,5.820298 -13,13 v 3.5 c 0,0 1,0.25 2,0.25 1,0 2,-0.25 2,-0.25 V 28 c 0,-4.970563 4.029437,-9 9,-9 4.970563,0 9,4.029437 9,9 v 3.5 c 0,0 1,0.25 2,0.25 1,0 2,-0.25 2,-0.25 V 28 C 45,20.820298 39.179702,15 32,15 Z"
       id="path4832" />
  </g>
</svg>
