<?xml version="1.0" encoding="UTF-8" standalone="no"?>
<!-- Created with Inkscape (http://www.inkscape.org/) -->

<svg
   width="24"
   height="24"
   id="svg13094"
   version="1.1"
   inkscape:version="1.2.2 (b0a8486541, 2022-12-01)"
   sodipodi:docname="music-tag.svg"
   xmlns:inkscape="http://www.inkscape.org/namespaces/inkscape"
   xmlns:sodipodi="http://sodipodi.sourceforge.net/DTD/sodipodi-0.dtd"
   xmlns="http://www.w3.org/2000/svg"
   xmlns:svg="http://www.w3.org/2000/svg"
   xmlns:rdf="http://www.w3.org/1999/02/22-rdf-syntax-ns#"
   xmlns:cc="http://creativecommons.org/ns#"
   xmlns:dc="http://purl.org/dc/elements/1.1/">
  <sodipodi:namedview
     id="base"
     pagecolor="#ffffff"
     bordercolor="#666666"
     borderopacity="1.0"
     inkscape:pageopacity="0"
     inkscape:pageshadow="2"
     inkscape:zoom="11.313709"
     inkscape:cx="31.510445"
     inkscape:cy="30.891726"
     inkscape:document-units="px"
     inkscape:current-layer="svg13094"
     showgrid="true"
     inkscape:snap-bbox="true"
     inkscape:bbox-paths="true"
     inkscape:bbox-nodes="true"
     inkscape:snap-bbox-edge-midpoints="true"
     inkscape:snap-bbox-midpoints="true"
     inkscape:object-paths="true"
     inkscape:snap-intersection-paths="true"
     inkscape:object-nodes="true"
     inkscape:snap-smooth-nodes="true"
     inkscape:snap-midpoints="true"
     inkscape:snap-object-midpoints="true"
     inkscape:snap-center="true"
     showguides="true"
     inkscape:guide-bbox="true"
     inkscape:window-width="2560"
     inkscape:window-height="1351"
     inkscape:window-x="0"
     inkscape:window-y="0"
     inkscape:window-maximized="1"
     inkscape:snap-global="true"
     fit-margin-top="0"
     fit-margin-left="0"
     fit-margin-right="0"
     fit-margin-bottom="0"
     showborder="true"
     inkscape:showpageshadow="false"
     inkscape:snap-page="true"
     inkscape:pagecheckerboard="0"
     inkscape:deskcolor="#d1d1d1">
    <inkscape:grid
       type="xygrid"
       id="grid3075"
       empspacing="5"
       visible="true"
       enabled="true"
       snapvisiblegridlinesonly="true"
       originx="1.6362304e-08"
       originy="18"
       spacingx="1"
       spacingy="1" />
  </sodipodi:namedview>
  <defs
     id="defs13096" />
  <metadata
     id="metadata13099">
    <rdf:RDF>
      <cc:Work
         rdf:about="">
        <dc:format>image/svg+xml</dc:format>
        <dc:type
           rdf:resource="http://purl.org/dc/dcmitype/StillImage" />
      </cc:Work>
    </rdf:RDF>
  </metadata>
  <g
     id="g3043"
     inkscape:export-filename="folder.png"
     inkscape:export-xdpi="90"
     inkscape:export-ydpi="90"
     transform="translate(-0.62500009,0.082283)" />
  <g
     id="scalable"
     transform="matrix(1.0385892,0,0,1.0385892,1214.7222,1878.8121)"
     inkscape:label="#g3701"
     style="fill:#ffffff" />
  <g
     id="g2529"
     transform="matrix(0.42097678,0,0,0.42097678,1.5940925,-0.05399921)">
    <path
       inkscape:connector-curvature="0"
       style="color:#000000;display:inline;overflow:visible;visibility:visible;fill:#090d11;fill-opacity:0.74902;fill-rule:nonzero;stroke:#ffffff;stroke-width:2;stroke-dasharray:none;stroke-opacity:0.501961;marker:none;enable-background:accumulate"
       d="m 43.119328,15.39149 c -0.03121,1.75642 -0.519161,2.872164 -0.06657,4.659803 0.920574,3.636114 4.629438,7.354232 5.025931,11.549657 0.368386,3.898172 -0.648282,6.048676 -4.193823,10.717549 l -6.157598,1.664215 c 16.567693,-8.761751 6.472492,-18.057149 2.79588,-19.537891 l -7.35583,18.639215 c -2.487622,3.80085 -5.911007,6.390588 -10.051863,6.390588 -4.140859,0 -7.688679,-2.881186 -7.688679,-6.390588 0,-3.509392 3.627775,-6.390588 7.688679,-6.390588 4.0609,0 6.661028,2.640805 7.222697,4.260392 l 10.451274,-24.69696 z"
       id="path5049" />
    <path
       inkscape:transform-center-y="7.4917434"
       inkscape:transform-center-x="-2.9982612"
       sodipodi:nodetypes="sccccssssss"
       inkscape:connector-curvature="0"
       id="path4239"
       d="m 17.285673,5.6416763 c -2.050872,0.565765 -4.667486,7.0808357 -4.667486,7.0808357 L 16.649262,27.334979 28.954498,23.94039 24.923423,9.3279213 c 0,0 -5.58688,-4.252009 -7.63775,-3.686245 z m 0.636485,2.307232 c 1.274248,-0.351521 2.592195,0.396497 2.943716,1.670746 0.351522,1.2742487 -0.396496,2.5921947 -1.670745,2.9437157 -1.274248,0.351522 -2.592197,-0.396495 -2.943718,-1.670745 -0.351521,-1.2742477 0.396497,-2.5921947 1.670747,-2.9437167 z"
       style="color:#000000;display:inline;overflow:visible;visibility:visible;fill:#090d11;fill-opacity:0.74902;fill-rule:nonzero;stroke:#ffffff;stroke-width:2;stroke-dasharray:none;stroke-opacity:0.501961;marker:none;enable-background:accumulate" />
    <path
       inkscape:connector-curvature="0"
       id="path4198"
       d="m 17.0625,0 -0.09375,9.25 a 1.0001,1.0001 0 1 0 2,0 L 19.0625,0 Z"
       style="color:#000000;font-style:normal;font-variant:normal;font-weight:normal;font-stretch:normal;font-size:medium;line-height:normal;font-family:Sans;-inkscape-font-specification:Sans;text-indent:0;text-align:start;text-decoration:none;text-decoration-line:none;letter-spacing:normal;word-spacing:normal;text-transform:none;writing-mode:lr-tb;direction:ltr;baseline-shift:baseline;text-anchor:start;display:inline;overflow:visible;visibility:visible;fill:#090d11;fill-opacity:0.74902;stroke:none;stroke-width:2;marker:none;enable-background:accumulate" />
    <path
       style="color:#000000;display:inline;overflow:visible;visibility:visible;fill:#090d11;fill-opacity:0.74902;fill-rule:nonzero;stroke:#ffffff;stroke-width:2;stroke-dasharray:none;stroke-opacity:0.501961;marker:none;enable-background:accumulate"
       d="M 12,16.050253 C 9.945013,15.499621 4.389628,19.792698 4.389628,19.792698 L 0.4663737,34.434482 12.796297,37.738276 16.719552,23.09649 c 0,0 -2.664567,-6.495605 -4.719552,-7.046237 z m -0.619462,2.311861 c 1.276805,0.342119 2.034518,1.654516 1.692399,2.931321 -0.342119,1.276806 -1.654515,2.034518 -2.931321,1.692399 -1.276805,-0.342118 -2.03452,-1.654515 -1.6924,-2.931321 0.342119,-1.276805 1.654516,-2.034518 2.931322,-1.692399 z"
       id="path3421"
       inkscape:connector-curvature="0"
       sodipodi:nodetypes="sccccssssss" />
    <path
       inkscape:connector-curvature="0"
       id="path3423"
       d="M 10,0 9.90625,19.46875 a 1.0001,1.0001 0 1 0 2,0 L 12,0 Z"
       style="color:#000000;font-style:normal;font-variant:normal;font-weight:normal;font-stretch:normal;font-size:medium;line-height:normal;font-family:Sans;-inkscape-font-specification:Sans;text-indent:0;text-align:start;text-decoration:none;text-decoration-line:none;letter-spacing:normal;word-spacing:normal;text-transform:none;writing-mode:lr-tb;direction:ltr;baseline-shift:baseline;text-anchor:start;display:inline;overflow:visible;visibility:visible;fill:#090d11;fill-opacity:0.74902;fill-rule:nonzero;stroke:none;stroke-width:2;marker:none;enable-background:accumulate" />
  </g>
</svg>
