<?xml version="1.0" encoding="UTF-8" standalone="no"?>
<svg
   width="24"
   height="24"
   viewBox="0 0 24 24"
   fill="none"
   version="1.1"
   id="svg27"
   sodipodi:docname="proton-vpn-logo.svg"
   inkscape:version="1.2.2 (b0a8486541, 2022-12-01)"
   xmlns:inkscape="http://www.inkscape.org/namespaces/inkscape"
   xmlns:sodipodi="http://sodipodi.sourceforge.net/DTD/sodipodi-0.dtd"
   xmlns="http://www.w3.org/2000/svg"
   xmlns:svg="http://www.w3.org/2000/svg">
  <sodipodi:namedview
     id="namedview29"
     pagecolor="#ffffff"
     bordercolor="#666666"
     borderopacity="1.0"
     inkscape:showpageshadow="2"
     inkscape:pageopacity="0.0"
     inkscape:pagecheckerboard="true"
     inkscape:deskcolor="#d1d1d1"
     showgrid="false"
     inkscape:zoom="24.834858"
     inkscape:cx="-4.2480613"
     inkscape:cy="19.347805"
     inkscape:window-width="2560"
     inkscape:window-height="1351"
     inkscape:window-x="0"
     inkscape:window-y="0"
     inkscape:window-maximized="1"
     inkscape:current-layer="svg27" />
  <defs
     id="defs25">
    <clipPath
       clipPathUnits="userSpaceOnUse"
       id="clipPath319">
      <g
         id="g323">
        <rect
           width="36"
           height="36"
           fill="#ffffff"
           id="rect321"
           x="0"
           y="0" />
      </g>
    </clipPath>
    <clipPath
       clipPathUnits="userSpaceOnUse"
       id="clipPath325">
      <g
         id="g329">
        <rect
           width="36"
           height="36"
           fill="#ffffff"
           id="rect327"
           x="0"
           y="0" />
      </g>
    </clipPath>
  </defs>
  <path
     id="path6"
     clip-path=""
     style="fill:#090d11;fill-opacity:0.74902;stroke:#fbfbfb;stroke-width:2;stroke-dasharray:none;stroke-opacity:0.501961"
     d="m 9.8334973,18.216421 0.5429257,-0.84443 4.124235,-6.496331 c 0.360591,-0.568023 0.01645,-1.3299266 -0.63596,-1.4080556 L 3.6294025,8.2422584 9.073916,18.037536 c 0.1935319,0.355762 0.5404063,0.519727 0.7595813,0.178883 z m 0.3467907,1.86489 c 0.73127,1.314642 2.609256,1.385836 3.439446,0.130406 L 21.361352,8.5055298 c 0.820919,-1.2414367 0.03542,-2.90584 -1.451171,-3.0749567 L 4.6938702,3.6992438 C 3.0715974,3.5146551 1.9165207,5.2252471 2.7055861,6.6438121 l 0.061879,0.1106395 C 4.8424509,10.862144 7.1717434,14.826459 9.4745561,18.80795 Z"
     sodipodi:nodetypes="ccccccscccccccccc" />
</svg>
