<?xml version="1.0" encoding="UTF-8" standalone="no"?>
<!-- Created with Inkscape (http://www.inkscape.org/) -->

<svg
   width="24"
   height="24"
   id="svg13094"
   version="1.1"
   inkscape:version="1.2.2 (b0a8486541, 2022-12-01)"
   sodipodi:docname="samba-share.svg"
   xmlns:inkscape="http://www.inkscape.org/namespaces/inkscape"
   xmlns:sodipodi="http://sodipodi.sourceforge.net/DTD/sodipodi-0.dtd"
   xmlns="http://www.w3.org/2000/svg"
   xmlns:svg="http://www.w3.org/2000/svg"
   xmlns:rdf="http://www.w3.org/1999/02/22-rdf-syntax-ns#"
   xmlns:cc="http://creativecommons.org/ns#"
   xmlns:dc="http://purl.org/dc/elements/1.1/">
  <sodipodi:namedview
     id="base"
     pagecolor="#ffffff"
     bordercolor="#666666"
     borderopacity="1.0"
     inkscape:pageopacity="0"
     inkscape:pageshadow="2"
     inkscape:zoom="11.313709"
     inkscape:cx="32.52691"
     inkscape:cy="39.995726"
     inkscape:document-units="px"
     inkscape:current-layer="svg13094"
     showgrid="true"
     inkscape:snap-bbox="true"
     inkscape:bbox-paths="true"
     inkscape:bbox-nodes="true"
     inkscape:snap-bbox-edge-midpoints="true"
     inkscape:snap-bbox-midpoints="true"
     inkscape:object-paths="true"
     inkscape:snap-intersection-paths="true"
     inkscape:object-nodes="true"
     inkscape:snap-smooth-nodes="true"
     inkscape:snap-midpoints="true"
     inkscape:snap-object-midpoints="true"
     inkscape:snap-center="true"
     showguides="true"
     inkscape:guide-bbox="true"
     inkscape:window-width="2560"
     inkscape:window-height="1357"
     inkscape:window-x="0"
     inkscape:window-y="0"
     inkscape:window-maximized="1"
     inkscape:snap-global="true"
     fit-margin-top="0"
     fit-margin-left="0"
     fit-margin-right="0"
     fit-margin-bottom="0"
     showborder="true"
     inkscape:showpageshadow="false"
     inkscape:snap-page="true"
     inkscape:pagecheckerboard="0"
     inkscape:deskcolor="#cbcdd6">
    <inkscape:grid
       type="xygrid"
       id="grid3075"
       empspacing="5"
       visible="true"
       enabled="true"
       snapvisiblegridlinesonly="true"
       originx="0"
       originy="18"
       spacingx="1"
       spacingy="1" />
  </sodipodi:namedview>
  <defs
     id="defs13096">
    <linearGradient
       id="linearGradient4158">
      <stop
         offset="0"
         style="stop-color:#7db44e;stop-opacity:1;"
         id="stop4160" />
      <stop
         offset="1"
         style="stop-color:#648e49;stop-opacity:1;"
         id="stop4162" />
    </linearGradient>
  </defs>
  <metadata
     id="metadata13099">
    <rdf:RDF>
      <cc:Work
         rdf:about="">
        <dc:format>image/svg+xml</dc:format>
        <dc:type
           rdf:resource="http://purl.org/dc/dcmitype/StillImage" />
      </cc:Work>
    </rdf:RDF>
  </metadata>
  <g
     id="g3043"
     inkscape:export-filename="folder.png"
     inkscape:export-xdpi="90"
     inkscape:export-ydpi="90"
     transform="translate(-0.625,0.082283)" />
  <g
     id="scalable"
     transform="matrix(1.0385892,0,0,1.0385892,1214.7222,1878.8121)"
     inkscape:label="#g3701"
     style="fill:#ffffff" />
  <g
     id="g886"
     transform="matrix(0.35859629,0,0,0.35859629,0.50264972,-0.27793379)">
    <path
       inkscape:connector-curvature="0"
       style="fill:#000000;fill-opacity:1;fill-rule:nonzero;stroke:none"
       d="M 51.1875,4 37,18.1875 c -4.337346,-1.372922 -9.202626,-0.953378 -13.34375,1.4375 -1.488411,0.859334 -2.704747,1.894238 -3.8125,3.09375 -4.616315,4.998693 -5.757407,12.505156 -2.53125,18.8125 L 22.21875,36.625 c -0.914478,-3.380545 -0.03492,-7.183828 2.625,-9.84375 3.970096,-3.970096 10.404903,-3.970096 14.375,0 L 62,4 Z m -4.5,22.46875 -4.90625,4.90625 c 0.914478,3.380545 0.09743,7.183828 -2.5625,9.84375 -3.970097,3.970099 -10.404904,3.970099 -14.375,0 L 2,64 H 12.8125 L 27,49.8125 c 4.337344,1.372922 9.202629,0.953378 13.34375,-1.4375 7.686257,-4.437665 10.335177,-14.090607 6.34375,-21.90625 z M 32,28.90625 c -2.807282,0 -5.09375,2.28647 -5.09375,5.09375 0,2.807282 2.286468,5.09375 5.09375,5.09375 2.80728,0 5.09375,-2.286468 5.09375,-5.09375 0,-2.80728 -2.28647,-5.09375 -5.09375,-5.09375 z"
       id="path3875" />
    <path
       style="fill:#ffffff;fill-opacity:1;fill-rule:nonzero;stroke:none"
       d="M 62,4 39.21875,26.78125 c -3.970097,-3.970096 -10.404904,-3.970096 -14.375,0 -2.65992,2.659922 -3.539478,6.463205 -2.625,9.84375 l -4.53125,4.53125 c 0.18741,0.465422 0.392597,0.920638 0.625,1.375 L 23.21875,37.625 c -0.914478,-3.380545 -0.03492,-7.183828 2.625,-9.84375 3.970096,-3.970096 10.404903,-3.970096 14.375,0 L 63,5 Z M 47.6875,27.46875 47.28125,27.875 c 3.035277,7.539343 0.300917,16.320896 -6.9375,20.5 C 36.202629,50.765878 31.337344,51.185422 27,49.8125 L 12.8125,64 H 4 L 3,65 H 13.8125 L 28,50.8125 c 4.337344,1.372922 9.202629,0.953378 13.34375,-1.4375 7.686257,-4.437665 10.335177,-14.090607 6.34375,-21.90625 z m -11.625,3.46875 c 0.645088,0.853477 1.03125,1.913414 1.03125,3.0625 0,2.807282 -2.28647,5.09375 -5.09375,5.09375 -1.149087,0 -2.209023,-0.386163 -3.0625,-1.03125 0.930896,1.231614 2.404305,2.03125 4.0625,2.03125 2.80728,0 5.09375,-2.286468 5.09375,-5.09375 0,-1.658194 -0.799636,-3.131604 -2.03125,-4.0625 z"
       id="path3818"
       inkscape:connector-curvature="0"
       sodipodi:nodetypes="ccsccccscccccsccccccsccsscssc" />
  </g>
</svg>
