<?xml version="1.0" encoding="UTF-8" standalone="no"?>
<!-- Created with Inkscape (http://www.inkscape.org/) -->

<svg
   width="24"
   height="24"
   id="svg13094"
   version="1.1"
   inkscape:version="1.2.2 (b0a8486541, 2022-12-01)"
   sodipodi:docname="samba-share.svg"
   xmlns:inkscape="http://www.inkscape.org/namespaces/inkscape"
   xmlns:sodipodi="http://sodipodi.sourceforge.net/DTD/sodipodi-0.dtd"
   xmlns="http://www.w3.org/2000/svg"
   xmlns:svg="http://www.w3.org/2000/svg"
   xmlns:rdf="http://www.w3.org/1999/02/22-rdf-syntax-ns#"
   xmlns:cc="http://creativecommons.org/ns#"
   xmlns:dc="http://purl.org/dc/elements/1.1/">
  <sodipodi:namedview
     id="base"
     pagecolor="#ffffff"
     bordercolor="#666666"
     borderopacity="1.0"
     inkscape:pageopacity="0"
     inkscape:pageshadow="2"
     inkscape:zoom="21.105206"
     inkscape:cx="19.26065"
     inkscape:cy="6.3254535"
     inkscape:document-units="px"
     inkscape:current-layer="svg13094"
     showgrid="true"
     inkscape:snap-bbox="true"
     inkscape:bbox-paths="true"
     inkscape:bbox-nodes="true"
     inkscape:snap-bbox-edge-midpoints="true"
     inkscape:snap-bbox-midpoints="true"
     inkscape:object-paths="true"
     inkscape:snap-intersection-paths="true"
     inkscape:object-nodes="true"
     inkscape:snap-smooth-nodes="true"
     inkscape:snap-midpoints="true"
     inkscape:snap-object-midpoints="true"
     inkscape:snap-center="true"
     showguides="true"
     inkscape:guide-bbox="true"
     inkscape:window-width="2560"
     inkscape:window-height="1357"
     inkscape:window-x="0"
     inkscape:window-y="0"
     inkscape:window-maximized="1"
     inkscape:snap-global="true"
     fit-margin-top="0"
     fit-margin-left="0"
     fit-margin-right="0"
     fit-margin-bottom="0"
     showborder="true"
     inkscape:showpageshadow="false"
     inkscape:snap-page="true"
     inkscape:pagecheckerboard="0"
     inkscape:deskcolor="#cbcdd6">
    <inkscape:grid
       type="xygrid"
       id="grid3075"
       empspacing="5"
       visible="true"
       enabled="true"
       snapvisiblegridlinesonly="true"
       originx="0"
       originy="18"
       spacingx="1"
       spacingy="1" />
  </sodipodi:namedview>
  <defs
     id="defs13096">
    <linearGradient
       id="linearGradient4158">
      <stop
         offset="0"
         style="stop-color:#7db44e;stop-opacity:1;"
         id="stop4160" />
      <stop
         offset="1"
         style="stop-color:#648e49;stop-opacity:1;"
         id="stop4162" />
    </linearGradient>
  </defs>
  <metadata
     id="metadata13099">
    <rdf:RDF>
      <cc:Work
         rdf:about="">
        <dc:format>image/svg+xml</dc:format>
        <dc:type
           rdf:resource="http://purl.org/dc/dcmitype/StillImage" />
      </cc:Work>
    </rdf:RDF>
  </metadata>
  <g
     id="g3043"
     inkscape:export-filename="folder.png"
     inkscape:export-xdpi="90"
     inkscape:export-ydpi="90"
     transform="translate(-0.625,0.082283)" />
  <g
     id="scalable"
     transform="matrix(1.0385892,0,0,1.0385892,1214.7222,1878.8121)"
     inkscape:label="#g3701"
     style="fill:#ffffff" />
  <path
     inkscape:connector-curvature="0"
     style="fill:#090d11;fill-opacity:0.74901962;fill-rule:nonzero;stroke:none;stroke-width:0.358596"
     d="M 18.858297,1.1564514 13.770712,6.2440362 C 12.215356,5.7517115 10.470685,5.9021584 8.9856932,6.7595184 8.4519545,7.0676724 8.015781,7.4387851 7.6185448,7.8689257 5.9631514,9.6614384 5.5539601,12.353228 6.710848,14.615018 L 8.470211,12.855655 C 8.1422826,11.643404 8.457689,10.279561 9.4115263,9.3257231 c 1.4236617,-1.4236617 3.7311597,-1.4236617 5.1548217,0 L 22.73562,1.1564514 Z m -1.613683,8.0572104 -1.759363,1.7593632 c 0.327928,1.212251 0.03494,2.576094 -0.918903,3.529932 -1.423662,1.423663 -3.73116,1.423663 -5.1548217,0 l -8.191684,8.169272 H 5.0971647 L 10.18475,17.584644 c 1.555355,0.492325 3.300028,0.341878 4.785019,-0.515482 2.756263,-1.59133 3.706156,-5.05284 2.274845,-7.8555002 z M 11.977731,10.08774 c -1.006681,0 -1.8266,0.81992 -1.8266,1.8266 0,1.006681 0.819919,1.8266 1.8266,1.8266 1.00668,0 1.8266,-0.819919 1.8266,-1.8266 0,-1.00668 -0.81992,-1.8266 -1.8266,-1.8266 z"
     id="path3875" />
  <path
     style="fill:#ffffff;fill-opacity:0.50196081;fill-rule:nonzero;stroke:none;stroke-width:0.358596"
     d="m 22.73562,1.1564514 -8.169272,8.1692717 c -1.423662,-1.4236617 -3.73116,-1.4236617 -5.154822,0 C 8.457689,10.279561 8.142283,11.643404 8.470211,12.855655 l -1.6248894,1.62489 c 0.067204,0.166898 0.1407838,0.330137 0.2241227,0.49307 L 8.828807,13.214252 c -0.327928,-1.212251 -0.01252,-2.576094 0.941316,-3.5299326 1.423661,-1.4236617 3.731159,-1.4236617 5.154821,0 l 8.169272,-8.1692717 z m -5.13241,8.4158067 -0.145679,0.1456797 c 1.088439,2.7035802 0.107907,5.8526132 -2.487762,7.3512242 -1.484991,0.85736 -3.229664,1.007807 -4.785019,0.515482 L 5.0971647,22.672229 H 1.9370349 L 1.5784386,23.030825 H 5.455761 l 5.087585,-5.087585 c 1.555355,0.492325 3.300028,0.341878 4.785019,-0.515482 2.756263,-1.59133 3.706156,-5.052839 2.274845,-7.8554999 z m -4.168682,1.2438809 c 0.231327,0.306054 0.369803,0.686143 0.369803,1.098201 0,1.006681 -0.81992,1.8266 -1.8266,1.8266 -0.412058,0 -0.792147,-0.138477 -1.098201,-0.369803 0.333816,0.441653 0.862175,0.728399 1.456797,0.728399 1.00668,0 1.8266,-0.819919 1.8266,-1.8266 0,-0.594622 -0.286746,-1.122981 -0.728399,-1.456797 z"
     id="path3818"
     inkscape:connector-curvature="0"
     sodipodi:nodetypes="ccsccccscccccsccccccsccsscssc" />
</svg>
