<?xml version="1.0" encoding="UTF-8" standalone="no"?>
<!-- Generator: Adobe Illustrator 27.8.0, SVG Export Plug-In . SVG Version: 6.00 Build 0)  -->

<svg
   version="1.1"
   id="Layer_2_00000109733484558031751480000005632669012941692061_"
   x="0px"
   y="0px"
   viewBox="0 0 64 64"
   xml:space="preserve"
   sodipodi:docname="tutanota-desktop.svg"
   width="64"
   height="64"
   inkscape:version="1.2.2 (b0a8486541, 2022-12-01)"
   xmlns:inkscape="http://www.inkscape.org/namespaces/inkscape"
   xmlns:sodipodi="http://sodipodi.sourceforge.net/DTD/sodipodi-0.dtd"
   xmlns="http://www.w3.org/2000/svg"
   xmlns:svg="http://www.w3.org/2000/svg"><defs
   id="defs12" />
   <sodipodi:namedview
   id="namedview13"
   pagecolor="#ffffff"
   bordercolor="#666666"
   borderopacity="1.0"
   inkscape:showpageshadow="2"
   inkscape:pageopacity="0.0"
   inkscape:pagecheckerboard="0"
   inkscape:deskcolor="#d1d1d1"
   showgrid="false"
   inkscape:zoom="5.7982756"
   inkscape:cx="32.509665"
   inkscape:cy="46.996731"
   inkscape:window-width="2560"
   inkscape:window-height="1357"
   inkscape:window-x="0"
   inkscape:window-y="0"
   inkscape:window-maximized="1"
   inkscape:current-layer="Layer_2_00000109733484558031751480000005632669012941692061_" />
	<path
   inkscape:connector-curvature="0"
   style="color:#000000;display:inline;overflow:visible;visibility:visible;fill:#c00003;fill-opacity:1;fill-rule:nonzero;stroke:none;stroke-width:2.28571;marker:none;enable-background:accumulate"
   d="m 0,4 v 30 28 l 2,2 h 30 30 l 2,-2 V 34 4 H 32 Z"
   id="path6498" /><path
   inkscape:connector-curvature="0"
   style="color:#000000;display:inline;overflow:visible;visibility:visible;fill:#d94b4b;fill-opacity:1;fill-rule:nonzero;stroke:none;marker:none;enable-background:accumulate"
   d="M 2,0 0,1 V 4 H 32 64 V 1 L 62,0 H 32 Z"
   id="path6502" /><path
   inkscape:connector-curvature="0"
   style="fill:#ff4903;fill-opacity:1;fill-rule:nonzero"
   d="M 0,3 V 6 L 2,4 Z"
   id="path4298-3"
   sodipodi:nodetypes="cccc" /><path
   d="M 64,6 62,4 64,3 Z"
   id="path3028-6"
   style="fill:#b60003;fill-opacity:1"
   inkscape:connector-curvature="0" /><g
   id="g1723"
   transform="translate(-1.3338513,0.30084585)"><path
     d="m 18.08849,21.333142 -7.42536,-7.379411 c -0.0919,-0.08271 -0.202176,-0.07352 -0.211366,-0.07352 -0.147037,0 -0.266504,0.119468 -0.266504,0.266504 v 32.50433 0 c 0,0.147037 0.119467,0.266504 0.266504,0.266504 0.110278,0 0.211366,-0.07352 0.248125,-0.174606 0.0092,-0.0092 0.0092,-0.02757 0.01838,-0.04595 0,-0.0092 0.01838,-0.07352 0.01838,-0.08271 l 7.489689,-24.59191 c 0.0919,-0.275694 0.0919,-0.45949 -0.137847,-0.689235 z"
     id="path2"
     style="fill:#ffffff;stroke-width:0.091898" /><path
     d="M 56.023992,18.355646 48.25861,10.498365 c -0.340023,-0.330833 -0.367592,-0.275694 -0.735184,-0.275694 0,0 -33.487639,0 -33.496829,0 -0.147037,0 -0.266504,0.119467 -0.266504,0.266504 0,0.0092 -0.0092,0.119468 0.08271,0.220556 l 0.0092,0.0092 7.820521,7.91242 c 0.183797,0.183796 0.367593,0.229745 0.643287,0.229745 h 33.570346 c 0.229745,0 0.349213,-0.294074 0.137847,-0.505439 z"
     id="path4"
     style="fill:#ffffff;stroke-width:0.091898" /><path
     d="M 56.12508,23.685731 46.246043,55.76733 c -0.03676,0.101088 -0.06433,0.174606 -0.08271,0.229745 -0.03676,0.0919 -0.110278,0.156226 -0.211366,0.174606 -0.01838,0 -0.05514,0 -0.05514,0 h -32.9822 c -0.147037,0 -0.266504,-0.119467 -0.266504,-0.266504 0,-0.03676 0.01838,-0.101088 0.01838,-0.101088 L 22.51797,23.584643 c 0.0092,-0.04595 0.02757,-0.101088 0.04595,-0.147037 0.03676,-0.101088 0.128658,-0.174606 0.238935,-0.174606 0.137847,0 32.991389,0 32.991389,0 0.266505,0 0.385972,0.165416 0.330833,0.422731 z"
     id="path8"
     style="fill:#ffffff;stroke-width:0.091898" /></g>
</svg>
