<?xml version="1.0" encoding="UTF-8" standalone="no"?>
<!-- Uploaded to: SVG Repo, www.svgrepo.com, Generator: SVG Repo Mixer Tools -->

<svg
   width="64"
   height="64"
   viewBox="0 0 2.56 2.56"
   version="1.1"
   id="svg3692"
   sodipodi:docname="vscode.svg"
   inkscape:version="1.2.2 (b0a8486541, 2022-12-01)"
   xmlns:inkscape="http://www.inkscape.org/namespaces/inkscape"
   xmlns:sodipodi="http://sodipodi.sourceforge.net/DTD/sodipodi-0.dtd"
   xmlns="http://www.w3.org/2000/svg"
   xmlns:svg="http://www.w3.org/2000/svg"
   xmlns:rdf="http://www.w3.org/1999/02/22-rdf-syntax-ns#"
   xmlns:cc="http://creativecommons.org/ns#"
   xmlns:dc="http://purl.org/dc/elements/1.1/">
  <defs
     id="defs3696">
    <radialGradient
       id="e"
       cx="50.841999"
       cy="11.322"
       r="32"
       gradientTransform="matrix(0,0.0399224,-0.0367288,0,2.09648,-0.239356)"
       gradientUnits="userSpaceOnUse">
      <stop
         stop-color="#627187"
         offset="0"
         id="stop15811" />
      <stop
         stop-color="#b3bbcf"
         offset="1"
         id="stop15813" />
    </radialGradient>
  </defs>
  <sodipodi:namedview
     id="namedview3694"
     pagecolor="#ffffff"
     bordercolor="#666666"
     borderopacity="1.0"
     inkscape:showpageshadow="2"
     inkscape:pageopacity="0.0"
     inkscape:pagecheckerboard="0"
     inkscape:deskcolor="#d1d1d1"
     showgrid="false"
     inkscape:zoom="3.8826555"
     inkscape:cx="134.31529"
     inkscape:cy="38.762131"
     inkscape:window-width="2560"
     inkscape:window-height="1351"
     inkscape:window-x="0"
     inkscape:window-y="0"
     inkscape:window-maximized="1"
     inkscape:current-layer="svg3692" />
  <title
     id="title3684">file_type_vscode</title>
  <path
     d="m 0,0.08 v 1.28 1.12 l 0.08,0.08 h 1.2 1.2 L 2.56,2.48 V 1.36 0.08 H 1.28 Z"
     color="#000000"
     fill="url(#e)"
     id="path15878"
     style="fill:url(#e);stroke-width:0.04" />
  <path
     d="M 0.08,0 0,0.04 v 0.04 h 0.78248 0.78248 0.995 V 0.04 L 2.47996,0 h -0.915 -0.78248 z"
     color="#000000"
     fill="#e7ecf0"
     id="path15880"
     style="stroke-width:0.04" />
  <path
     d="M 2.56,0.16 2.48,0.08 2.56,0.04 Z"
     fill="#cbd1de"
     fill-opacity="0.99228"
     id="path15938"
     style="stroke-width:0.04" />
  <path
     d="M 0,0.04 V 0.16 L 0.08,0.08 Z"
     fill="#f2f4f7"
     id="path15940"
     style="stroke-width:0.04" />
  <g
     id="g3818"
     transform="matrix(0.07656537,0,0,0.07656537,0.01695271,0.06508004)">
    <path
       d="M 29.01,5.03 23.244,2.254 A 1.742,1.742 0 0 0 21.255,2.592 L 2.38,19.8 A 1.166,1.166 0 0 0 2.3,21.447 c 0.025,0.027 0.05,0.053 0.077,0.077 l 1.541,1.4 A 1.165,1.165 0 0 0 5.407,22.99 L 28.142,5.75 A 1.158,1.158 0 0 1 30,6.672 V 6.605 A 1.748,1.748 0 0 0 29.01,5.03 Z"
       style="fill:#0065a9"
       id="path3686" />
    <path
       d="m 29.01,26.97 -5.766,2.777 A 1.745,1.745 0 0 1 21.255,29.409 L 2.38,12.2 A 1.166,1.166 0 0 1 2.3,10.553 C 2.325,10.526 2.35,10.5 2.377,10.476 l 1.541,-1.4 A 1.165,1.165 0 0 1 5.41,9.01 L 28.142,26.25 A 1.158,1.158 0 0 0 30,25.328 V 25.4 a 1.749,1.749 0 0 1 -0.99,1.57 z"
       style="fill:#007acc"
       id="path3688" />
    <path
       d="M 23.244,29.747 A 1.745,1.745 0 0 1 21.255,29.409 1.025,1.025 0 0 0 23,28.684 V 3.316 A 1.024,1.024 0 0 0 21.251,2.592 1.744,1.744 0 0 1 23.24,2.253 l 5.765,2.772 A 1.748,1.748 0 0 1 30,6.6 v 18.8 a 1.748,1.748 0 0 1 -0.991,1.576 z"
       style="fill:#1f9cf0"
       id="path3690" />
  </g>
  <metadata
     id="metadata3820">
    <rdf:RDF>
      <cc:Work
         rdf:about="">
        <dc:title>file_type_vscode</dc:title>
      </cc:Work>
    </rdf:RDF>
  </metadata>
</svg>
