<?xml version="1.0" encoding="UTF-8" standalone="no"?>
<svg
   shape-rendering="geometricPrecision"
   text-rendering="geometricPrecision"
   image-rendering="optimizeQuality"
   fill-rule="evenodd"
   clip-rule="evenodd"
   viewBox="0 0 64.000001 63.999999"
   version="1.1"
   id="svg8"
   sodipodi:docname="phpmyadmin.svg"
   width="64"
   height="64"
   inkscape:version="1.2.2 (b0a8486541, 2022-12-01)"
   xmlns:inkscape="http://www.inkscape.org/namespaces/inkscape"
   xmlns:sodipodi="http://sodipodi.sourceforge.net/DTD/sodipodi-0.dtd"
   xmlns="http://www.w3.org/2000/svg"
   xmlns:svg="http://www.w3.org/2000/svg">
  <defs
     id="defs12" />
  <sodipodi:namedview
     id="namedview10"
     pagecolor="#ffffff"
     bordercolor="#666666"
     borderopacity="1.0"
     inkscape:showpageshadow="2"
     inkscape:pageopacity="0.0"
     inkscape:pagecheckerboard="0"
     inkscape:deskcolor="#d1d1d1"
     showgrid="false"
     inkscape:zoom="11.918121"
     inkscape:cx="9.3555017"
     inkscape:cy="35.869749"
     inkscape:window-width="2560"
     inkscape:window-height="1351"
     inkscape:window-x="0"
     inkscape:window-y="0"
     inkscape:window-maximized="1"
     inkscape:current-layer="svg8" />
  <path
     fill="#cccccc"
     fill-rule="nonzero"
     d="m 36.498163,2.1549557 -0.0523,-0.1026581 C 36.420685,2.0271173 36.395505,2 36.343208,2 l -0.104595,0.027117 c -0.05036,0.050361 -0.07748,0.077478 -0.07748,0.1278384 l -2.204247,39.9224036 0.33703,-0.05036 2.126766,-38.8357762 2.543211,4.1760564 h -0.02712 c 1.919514,5.6558838 2.725283,11.6739768 2.413436,18.0562148 l 0.154955,0.232434 2.51803,4.462724 0.154956,0.154955 c 3.864207,3.399343 8.197157,5.683001 12.996911,6.849043 l 1.167977,1.894334 0.154958,0.0523 0.02518,-0.0523 L 36.44586,2.9064916 36.49816,2.1530195 Z M 33.230535,41.769383 35.771808,2.8038328 C 32.087736,17.02102 26.174239,30.30266 18.054559,42.625515 Z m -16.655805,2.438616 0.311847,-0.02518 C 19.601409,0.62437013 19.282184,0.76145719 16.57473,44.207999 Z M 15.978153,43.481644 C 19.564135,3.4877569 18.177295,10.679452 6.4580613,44.492731 Z M 36.498163,2.1549557 35.721448,16.242367 c 2.723346,5.578406 3.709253,14.007996 2.982898,25.292646 L 49.314937,40.239196 35.721448,16.242367 36.498163,2.1549557 15.978153,43.481644 Z"
     id="path2"
     style="fill:#090d11;fill-opacity:0.74902;stroke:#ffffff;stroke-width:1;stroke-dasharray:none;stroke-opacity:1"
     sodipodi:nodetypes="ccccccccccccccccccccccccccccccccccccccc" />
  <g
     aria-label="P"
     id="text445"
     style="font-size:93.4569px;letter-spacing:0px;word-spacing:0px;fill:#090d11;fill-opacity:0.74902;stroke:#ffffff;stroke-width:3.78225;stroke-dasharray:none;stroke-opacity:1"
     transform="matrix(0.31456637,0,0,0.22222161,-25.098355,30.258243)">
    <path
       d="M 100.84227,70.911271 H 122.153 q 9.30919,0 14.19195,4.335159 4.88275,4.335159 4.88275,12.686044 0,11.225781 -7.21005,17.477536 -7.21005,6.25176 -20.26116,6.25176 h -11.59085 l -5.339092,27.37995 h -9.26355 z m 7.75766,7.57512 -4.92839,25.600259 h 11.59084 q 7.84892,0 12.04718,-4.01573 4.19826,-4.015727 4.19826,-11.49958 0,-4.791492 -2.87489,-7.43822 -2.82927,-2.646729 -7.98582,-2.646729 z"
       style="-inkscape-font-specification:'sans-serif Italic';fill:#090d11;fill-opacity:0.74902;stroke:#ffffff;stroke-width:3.78225;stroke-dasharray:none;stroke-opacity:1"
       id="path497" />
  </g>
  <g
     aria-label="M"
     id="text2336"
     style="font-size:96.3904px;line-height:1.25;letter-spacing:0px;word-spacing:0px;fill:#090d11;fill-opacity:0.74902;stroke:#ffffff;stroke-width:3.90097;stroke-dasharray:none;stroke-opacity:1"
     transform="matrix(0.30499299,0,0,0.21545861,-27.9428,30.861608)">
    <path
       d="m 166.77624,70.336717 h 14.26088 l 8.18942,47.348023 27.20393,-47.348023 h 14.63741 L 217.37179,140.6057 h -9.22487 l 11.95467,-61.608908 -27.58045,48.101068 h -9.27193 l -8.94247,-48.28933 -11.95467,61.79717 h -9.27193 z"
       style="font-style:italic;-inkscape-font-specification:'sans-serif Italic';fill:#090d11;fill-opacity:0.74902;stroke:#ffffff;stroke-width:3.90097;stroke-dasharray:none;stroke-opacity:1"
       id="path2342" />
  </g>
  <g
     aria-label="A"
     id="text2340"
     style="font-size:96.3904px;line-height:1.25;letter-spacing:0px;word-spacing:0px;fill:#090d11;fill-opacity:0.74902;stroke:#ffffff;stroke-width:3.90097;stroke-dasharray:none;stroke-opacity:1"
     transform="matrix(0.30499299,0,0,0.21545861,-30.189328,30.861608)">
    <path
       d="m 273.15872,70.336717 h 10.77803 l 13.03717,70.268983 h -9.93084 l -2.91807,-18.02614 h -31.6281 l -9.93085,18.02614 h -10.02498 z m 3.43579,9.36606 -19.7205,34.969763 h 25.79196 z"
       style="font-style:italic;-inkscape-font-specification:'sans-serif Italic';fill:#090d11;fill-opacity:0.74902;stroke:#ffffff;stroke-width:3.90097;stroke-dasharray:none;stroke-opacity:1"
       id="path2345" />
  </g>
</svg>
