<?xml version="1.0" encoding="UTF-8" standalone="no"?>
<!-- Generator: Adobe Illustrator 27.8.0, SVG Export Plug-In . SVG Version: 6.00 Build 0)  -->

<svg
   version="1.1"
   id="Layer_2_00000109733484558031751480000005632669012941692061_"
   x="0px"
   y="0px"
   viewBox="0 0 64 64"
   xml:space="preserve"
   sodipodi:docname="tutanota-desktop.svg"
   width="64"
   height="64"
   inkscape:version="1.2.2 (b0a8486541, 2022-12-01)"
   xmlns:inkscape="http://www.inkscape.org/namespaces/inkscape"
   xmlns:sodipodi="http://sodipodi.sourceforge.net/DTD/sodipodi-0.dtd"
   xmlns="http://www.w3.org/2000/svg"
   xmlns:svg="http://www.w3.org/2000/svg"><defs
   id="defs15"><linearGradient
   id="linearGradient3094"><stop
     offset="0"
     style="stop-color:#e6e7e8;stop-opacity:1;"
     id="stop3096" /><stop
     offset="1"
     style="stop-color:#cfd1d6;stop-opacity:1;"
     id="stop3104" /></linearGradient>
	
		

		
		
	
	
		

		
		
	</defs><sodipodi:namedview
   id="namedview13"
   pagecolor="#ffffff"
   bordercolor="#666666"
   borderopacity="1.0"
   inkscape:showpageshadow="2"
   inkscape:pageopacity="0.0"
   inkscape:pagecheckerboard="0"
   inkscape:deskcolor="#d1d1d1"
   showgrid="false"
   inkscape:zoom="5.7982756"
   inkscape:cx="14.400833"
   inkscape:cy="47.169196"
   inkscape:window-width="2560"
   inkscape:window-height="1351"
   inkscape:window-x="0"
   inkscape:window-y="0"
   inkscape:window-maximized="1"
   inkscape:current-layer="Layer_2_00000109733484558031751480000005632669012941692061_" />
	<path
   d="M 20.510057,20.525574 9.2278224,10.638394 c -0.1396343,-0.110815 -0.3071895,-0.09851 -0.3211536,-0.09851 -0.2234104,0 -0.4049308,0.160068 -0.4049308,0.35707 v 43.550379 0 c 0,0.197004 0.1815204,0.357071 0.4049308,0.357071 0.1675594,0 0.3211536,-0.0985 0.3770059,-0.233943 0.013981,-0.01232 0.013981,-0.03693 0.027921,-0.06156 0,-0.01234 0.027923,-0.09851 0.027923,-0.110816 L 20.719495,21.44903 c 0.139633,-0.369384 0.139633,-0.61564 -0.209447,-0.923459 z"
   id="path2-7"
   style="fill:#ffffff;fill-opacity:0.50196081" /><path
   d="M 59.127336,19.008637 50.061648,9.1562081 C 49.664687,8.7413688 49.632507,8.8105088 49.203349,8.8105088 c 0,0 -39.095145,0 -39.105874,0 -0.1716585,0 -0.3111302,0.1498024 -0.3111302,0.3341753 0,0.011539 -0.010745,0.1498041 0.096558,0.2765608 l 0.010745,0.011539 9.1300702,9.9215691 c 0.214574,0.230465 0.429145,0.288082 0.751005,0.288082 h 39.191695 c 0.268221,0 0.407695,-0.368747 0.160936,-0.633781 z"
   id="path4-5"
   style="fill:#ffffff;fill-opacity:0.50196081" /><path
   d="M 58.196927,22.041771 47.163422,57.076587 c -0.04114,0.110394 -0.07184,0.190679 -0.09236,0.250894 -0.04114,0.100361 -0.12316,0.170607 -0.236058,0.190678 -0.02057,0 -0.06156,0 -0.06156,0 H 9.9368875 c -0.1642196,0 -0.2976474,-0.130462 -0.2976474,-0.291036 0,-0.04015 0.020525,-0.110393 0.020525,-0.110393 L 20.662476,21.931378 c 0.01028,-0.05018 0.03078,-0.110393 0.05135,-0.160572 0.04107,-0.110395 0.143693,-0.19068 0.266853,-0.19068 0.153962,0 36.846784,0 36.846784,0 0.297638,0 0.431069,0.180643 0.369489,0.461645 z"
   id="path8-3"
   style="fill:#ffffff;fill-opacity:0.50196081" /><path
   d="m 18.423167,22.122867 -7.42536,-7.379411 c -0.0919,-0.08271 -0.202176,-0.07352 -0.211366,-0.07352 -0.147037,0 -0.266504,0.119468 -0.266504,0.266504 v 32.50433 0 c 0,0.147037 0.119467,0.266504 0.266504,0.266504 0.110278,0 0.211366,-0.07352 0.248125,-0.174606 0.0092,-0.0092 0.0092,-0.02757 0.01838,-0.04595 0,-0.0092 0.01838,-0.07352 0.01838,-0.08271 l 7.489689,-24.59191 c 0.0919,-0.275694 0.0919,-0.45949 -0.137847,-0.689235 z"
   id="path2"
   style="fill:#090d11;fill-opacity:0.74902;stroke-width:0.091898" /><path
   d="m 56.026917,18.355646 -7.558831,-7.857281 c -0.330979,-0.330833 -0.357815,-0.275694 -0.715629,-0.275694 0,0 -32.596903,0 -32.605848,0 -0.143126,0 -0.259416,0.119467 -0.259416,0.266504 0,0.0092 -0.009,0.119468 0.08051,0.220556 l 0.009,0.0092 7.612503,7.91242 c 0.178908,0.183796 0.357815,0.229745 0.626176,0.229745 h 32.67741 c 0.223634,0 0.339924,-0.294074 0.13418,-0.505439 z"
   id="path4"
   style="fill:#090d11;fill-opacity:0.74902;stroke-width:0.0906676" /><path
   d="m 56.125406,24.514181 -9.634814,31.263461 c -0.03585,0.09851 -0.06274,0.170153 -0.08066,0.223886 -0.03585,0.08955 -0.107552,0.152241 -0.206141,0.170153 -0.01792,0 -0.05378,0 -0.05378,0 H 13.983177 c -0.143402,0 -0.259916,-0.116421 -0.259916,-0.259708 0,-0.03583 0.01793,-0.09851 0.01793,-0.09851 l 9.607924,-31.397792 c 0.009,-0.04478 0.02689,-0.09851 0.04481,-0.143287 0.03585,-0.09851 0.125477,-0.170154 0.233028,-0.170154 0.134439,0 32.175794,0 32.175794,0 0.259917,0 0.37643,0.161197 0.322655,0.411951 z"
   id="path8"
   style="fill:#090d11;fill-opacity:0.74902;stroke-width:0.0895903" />
</svg>
